M48
;DRILL FILE
;Generated by LibrePCB 0.1.5
;Creation Date: 2021-05-15T07:17:11
FMAT,2
METRIC,TZ
T1C0.8
T2C0.9
%
G90
G05
M71
T1
X19.685Y13.335
X4.445Y23.495
X19.685Y38.735
X19.685Y15.875
X4.445Y31.115
X4.445Y18.415
X19.685Y28.575
X4.445Y36.195
X4.445Y10.795
X4.445Y15.875
X19.685Y20.955
X19.685Y10.795
X17.145Y27.305
X17.145Y29.845
X19.685Y26.035
X19.685Y18.415
X4.445Y28.575
X4.445Y33.655
X4.445Y26.035
X4.445Y20.955
X19.685Y33.655
X19.685Y36.195
X4.445Y38.735
X19.685Y23.495
X19.685Y31.115
X4.445Y13.335
T2
X23.495Y20.955
X26.035Y20.955
X11.43Y4.445
X11.43Y1.905
X16.51Y4.445
X16.51Y1.905
X23.495Y10.16
X26.035Y10.16
X19.05Y4.445
X19.05Y1.905
X13.97Y4.445
X13.97Y1.905
X26.035Y36.195
X26.035Y33.655
X26.035Y38.735
X26.035Y31.115
X23.495Y18.415
X26.035Y18.415
X23.495Y12.7
X26.035Y12.7
T0
M30
