G04 --- HEADER BEGIN --- *
%TF.GenerationSoftware,LibrePCB,LibrePCB,0.1.5*%
%TF.CreationDate,2021-05-15T07:17:12*%
%TF.ProjectId,Odometer Arduino Pro Mini - default,13410d80-bfca-4f75-a670-da1b2444d1b2,v1*%
%TF.Part,Single*%
%FSLAX66Y66*%
%MOMM*%
G01*
G74*
G04 --- HEADER END --- *
G04 --- APERTURE LIST BEGIN --- *
%ADD10C,0.25*%
%ADD11C,0.2*%
%ADD12C,1.47X1.07*%
%ADD13O,1.787X2.39*%
%ADD14R,1.787X2.39*%
%ADD15O,2.39X1.787*%
%ADD16R,2.39X1.787*%
%ADD17O,2.7X1.5*%
%ADD18O,2.2X1.5*%
%ADD19R,2.7X1.5*%
G04 --- APERTURE LIST END --- *
G04 --- BOARD BEGIN --- *
D10*
X22370000Y14095000D02*
X24495000Y14095000D01*
X24765000Y13825000D01*
X25035000Y14095000D01*
X27160000Y14095000D01*
X27430000Y13825000D01*
X27430000Y11575000D01*
X27160000Y11305000D01*
X25035000Y11305000D01*
X24765000Y11575000D01*
X24495000Y11305000D01*
X22370000Y11305000D01*
X22100000Y11575000D01*
X22100000Y13825000D01*
X22370000Y14095000D01*
X22370000Y19810000D02*
X24495000Y19810000D01*
X24765000Y19540000D01*
X25035000Y19810000D01*
X27160000Y19810000D01*
X27430000Y19540000D01*
X27430000Y17290000D01*
X27160000Y17020000D01*
X25035000Y17020000D01*
X24765000Y17290000D01*
X24495000Y17020000D01*
X22370000Y17020000D01*
X22100000Y17290000D01*
X22100000Y19540000D01*
X22370000Y19810000D01*
X27430000Y39860000D02*
X27430000Y37735000D01*
X27160000Y37465000D01*
X27430000Y37195000D01*
X27430000Y35195000D01*
X27160000Y34925000D01*
X27430000Y34655000D01*
X27430000Y32655000D01*
X27160000Y32385000D01*
X27430000Y32115000D01*
X27430000Y29990000D01*
X27160000Y29720000D01*
X24910000Y29720000D01*
X24640000Y29990000D01*
X24640000Y32115000D01*
X24910000Y32385000D01*
X24640000Y32655000D01*
X24640000Y34655000D01*
X24910000Y34925000D01*
X24640000Y35195000D01*
X24640000Y37195000D01*
X24910000Y37465000D01*
X24640000Y37735000D01*
X24640000Y39860000D01*
X24910000Y40130000D01*
X27160000Y40130000D01*
X27430000Y39860000D01*
X15365000Y5570000D02*
X15365000Y3445000D01*
X15095000Y3175000D01*
X15365000Y2905000D01*
X15365000Y780000D01*
X15095000Y510000D01*
X12845000Y510000D01*
X12575000Y780000D01*
X12575000Y2905000D01*
X12845000Y3175000D01*
X12575000Y3445000D01*
X12575000Y5570000D01*
X12845000Y5840000D01*
X15095000Y5840000D01*
X15365000Y5570000D01*
D11*
X2540000Y43180000D02*
X21590000Y43180000D01*
X21590000Y8890000D01*
X2540000Y8890000D01*
X2540000Y43180000D01*
D12*
X10795000Y41275000D03*
X18415000Y41275000D03*
X15875000Y41275000D03*
X8255000Y41275000D03*
X5715000Y41275000D03*
X13335000Y41275000D03*
D11*
X6946511Y38100000D02*
X6375400Y38100000D01*
X6660956Y38100000D02*
X6660956Y39100000D01*
X6565400Y38956667D01*
X6470956Y38862222D01*
X6375400Y38814444D01*
D10*
X20445000Y5570000D02*
X20445000Y3445000D01*
X20175000Y3175000D01*
X20445000Y2905000D01*
X20445000Y780000D01*
X20175000Y510000D01*
X17925000Y510000D01*
X17655000Y780000D01*
X17655000Y2905000D01*
X17925000Y3175000D01*
X17655000Y3445000D01*
X17655000Y5570000D01*
X17925000Y5840000D01*
X20175000Y5840000D01*
X20445000Y5570000D01*
X22370000Y11555000D02*
X24495000Y11555000D01*
X24765000Y11285000D01*
X25035000Y11555000D01*
X27160000Y11555000D01*
X27430000Y11285000D01*
X27430000Y9035000D01*
X27160000Y8765000D01*
X25035000Y8765000D01*
X24765000Y9035000D01*
X24495000Y8765000D01*
X22370000Y8765000D01*
X22100000Y9035000D01*
X22100000Y11285000D01*
X22370000Y11555000D01*
X17905000Y5570000D02*
X17905000Y3445000D01*
X17635000Y3175000D01*
X17905000Y2905000D01*
X17905000Y780000D01*
X17635000Y510000D01*
X15385000Y510000D01*
X15115000Y780000D01*
X15115000Y2905000D01*
X15385000Y3175000D01*
X15115000Y3445000D01*
X15115000Y5570000D01*
X15385000Y5840000D01*
X17635000Y5840000D01*
X17905000Y5570000D01*
X12825000Y5570000D02*
X12825000Y3445000D01*
X12555000Y3175000D01*
X12825000Y2905000D01*
X12825000Y780000D01*
X12555000Y510000D01*
X10305000Y510000D01*
X10035000Y780000D01*
X10035000Y2905000D01*
X10305000Y3175000D01*
X10035000Y3445000D01*
X10035000Y5570000D01*
X10305000Y5840000D01*
X12555000Y5840000D01*
X12825000Y5570000D01*
X22370000Y22350000D02*
X24495000Y22350000D01*
X24765000Y22080000D01*
X25035000Y22350000D01*
X27160000Y22350000D01*
X27430000Y22080000D01*
X27430000Y19830000D01*
X27160000Y19560000D01*
X25035000Y19560000D01*
X24765000Y19830000D01*
X24495000Y19560000D01*
X22370000Y19560000D01*
X22100000Y19830000D01*
X22100000Y22080000D01*
X22370000Y22350000D01*
D11*
X9525000Y635000D02*
X8025000Y635000D01*
X8740000Y635000D02*
X8740000Y1491667D01*
X9525000Y1491667D02*
X8025000Y1491667D01*
X9525000Y2706667D02*
X8740000Y2706667D01*
X8596667Y2635000D01*
X8525000Y2491667D01*
X8525000Y2206667D01*
X8596667Y2063334D01*
X9453333Y2706667D02*
X9525000Y2563334D01*
X9525000Y2206667D01*
X9453333Y2063334D01*
X9310000Y1991667D01*
X9168333Y1991667D01*
X9025000Y2063334D01*
X8953333Y2206667D01*
X8953333Y2563334D01*
X8881667Y2706667D01*
X9525000Y3421667D02*
X9453333Y3278334D01*
X9310000Y3206667D01*
X8025000Y3206667D01*
X9525000Y4136667D02*
X9453333Y3993334D01*
X9310000Y3921667D01*
X8025000Y3921667D01*
X24160000Y31096672D02*
X23540333Y30663339D01*
X24160000Y30354228D02*
X22860000Y30354228D01*
X22860000Y30849672D01*
X22922111Y30973895D01*
X22984222Y31034561D01*
X23107000Y31096672D01*
X23293333Y31096672D01*
X23417556Y31034561D01*
X23479667Y30973895D01*
X23540333Y30849672D01*
X23540333Y30354228D01*
X23479667Y32970004D02*
X23540333Y33156338D01*
X23602444Y33217004D01*
X23726667Y33279115D01*
X23913000Y33279115D01*
X24035778Y33217004D01*
X24097889Y33156338D01*
X24160000Y33032115D01*
X24160000Y32536671D01*
X22860000Y32536671D01*
X22860000Y32970004D01*
X22922111Y33094227D01*
X22984222Y33156338D01*
X23107000Y33217004D01*
X23231222Y33217004D01*
X23355444Y33156338D01*
X23417556Y33094227D01*
X23479667Y32970004D01*
X23479667Y32536671D01*
X24160000Y33925448D02*
X24097889Y33801226D01*
X23973667Y33739115D01*
X22860000Y33739115D01*
X23479667Y35798780D02*
X23540333Y35985114D01*
X23602444Y36045780D01*
X23726667Y36107891D01*
X23913000Y36107891D01*
X24035778Y36045780D01*
X24097889Y35985114D01*
X24160000Y35860891D01*
X24160000Y35365447D01*
X22860000Y35365447D01*
X22860000Y35798780D01*
X22922111Y35923003D01*
X22984222Y35985114D01*
X23107000Y36045780D01*
X23231222Y36045780D01*
X23355444Y35985114D01*
X23417556Y35923003D01*
X23479667Y35798780D01*
X23479667Y35365447D01*
X24160000Y36567891D02*
X22860000Y36567891D01*
X23664556Y36692113D02*
X24160000Y37063335D01*
X23293333Y37063335D02*
X23788778Y36567891D01*
X23540333Y38936667D02*
X24160000Y38936667D01*
X22860000Y38503334D02*
X23540333Y38936667D01*
X22860000Y39370001D01*
X10795000Y7650000D02*
X11104111Y6350000D01*
X11352556Y7278778D01*
X11599556Y6350000D01*
X11908667Y7650000D01*
X13781999Y6969667D02*
X13781999Y6350000D01*
X13348666Y7650000D02*
X13781999Y6969667D01*
X14215333Y7650000D01*
X16088665Y7030333D02*
X16274999Y6969667D01*
X16335665Y6907556D01*
X16397776Y6783333D01*
X16397776Y6597000D01*
X16335665Y6474222D01*
X16274999Y6412111D01*
X16150776Y6350000D01*
X15655332Y6350000D01*
X15655332Y7650000D01*
X16088665Y7650000D01*
X16212888Y7587889D01*
X16274999Y7525778D01*
X16335665Y7403000D01*
X16335665Y7278778D01*
X16274999Y7154556D01*
X16212888Y7092444D01*
X16088665Y7030333D01*
X15655332Y7030333D01*
X16857776Y6350000D02*
X16857776Y7650000D01*
X16981998Y6845444D02*
X17353220Y6350000D01*
X17353220Y7216667D02*
X16857776Y6721222D01*
X19535663Y6350000D02*
X19102330Y6969667D01*
X18793219Y6350000D02*
X18793219Y7650000D01*
X19288663Y7650000D01*
X19412886Y7587889D01*
X19473552Y7525778D01*
X19535663Y7403000D01*
X19535663Y7216667D01*
X19473552Y7092444D01*
X19412886Y7030333D01*
X19288663Y6969667D01*
X18793219Y6969667D01*
X22368333Y15033333D02*
X23081667Y15033333D01*
X22225000Y14605000D02*
X22725000Y16105000D01*
X23225000Y14605000D01*
X24440000Y14605000D02*
X24440000Y16105000D01*
X24440000Y14676667D02*
X24296667Y14605000D01*
X24010000Y14605000D01*
X23868333Y14676667D01*
X23796667Y14748333D01*
X23725000Y14890000D01*
X23725000Y15320000D01*
X23796667Y15461667D01*
X23868333Y15533333D01*
X24010000Y15605000D01*
X24296667Y15605000D01*
X24440000Y15533333D01*
X25655000Y14605000D02*
X25655000Y16105000D01*
X25655000Y14676667D02*
X25511667Y14605000D01*
X25225000Y14605000D01*
X25083333Y14676667D01*
X25011667Y14748333D01*
X24940000Y14890000D01*
X24940000Y15320000D01*
X25011667Y15461667D01*
X25083333Y15533333D01*
X25225000Y15605000D01*
X25511667Y15605000D01*
X25655000Y15533333D01*
X26155000Y14605000D02*
X26155000Y15605000D01*
X26155000Y15320000D02*
X26226667Y15461667D01*
X26298333Y15533333D01*
X26440000Y15605000D01*
X26583333Y15605000D01*
X22940000Y22860000D02*
X22225000Y22860000D01*
X22225000Y24360000D01*
X24725000Y24431667D02*
X23440000Y22503333D01*
X26081667Y22860000D02*
X25581667Y23575000D01*
X25225000Y22860000D02*
X25225000Y24360000D01*
X25796667Y24360000D01*
X25940000Y24288333D01*
X26010000Y24216667D01*
X26081667Y24075000D01*
X26081667Y23860000D01*
X26010000Y23716667D01*
X25940000Y23645000D01*
X25796667Y23575000D01*
X25225000Y23575000D01*
X24765000Y40640000D02*
X24765000Y42140000D01*
X25336667Y41996667D02*
X25408333Y42068333D01*
X25550000Y42140000D01*
X25908333Y42140000D01*
X26050000Y42068333D01*
X26121667Y41996667D01*
X26193333Y41855000D01*
X26193333Y41711667D01*
X26121667Y41496667D01*
X25265000Y40640000D01*
X26193333Y40640000D01*
X27621666Y40783333D02*
X27550000Y40711667D01*
X27336666Y40640000D01*
X27193333Y40640000D01*
X26978333Y40711667D01*
X26836666Y40855000D01*
X26765000Y40996667D01*
X26693333Y41283333D01*
X26693333Y41496667D01*
X26765000Y41783333D01*
X26836666Y41925000D01*
X26978333Y42068333D01*
X27193333Y42140000D01*
X27336666Y42140000D01*
X27550000Y42068333D01*
X27621666Y41996667D01*
X11293889Y44815000D02*
X11293889Y44005000D01*
X11341667Y43910556D01*
X11389445Y43862778D01*
X11483889Y43815000D01*
X11675000Y43815000D01*
X11770556Y43862778D01*
X11817222Y43910556D01*
X11865000Y44005000D01*
X11865000Y44815000D01*
X12836111Y43815000D02*
X12265000Y43815000D01*
X12550556Y43815000D02*
X12550556Y44815000D01*
X12455000Y44671667D01*
X12360556Y44577222D01*
X12265000Y44529444D01*
X9107778Y36115556D02*
X9583333Y36115556D01*
X9012222Y35830000D02*
X9345555Y36830000D01*
X9678889Y35830000D01*
X10078889Y35830000D02*
X10078889Y36496667D01*
X10078889Y36306667D02*
X10126667Y36401111D01*
X10174445Y36448889D01*
X10268889Y36496667D01*
X10364445Y36496667D01*
X11241112Y35830000D02*
X11241112Y36830000D01*
X11241112Y35877778D02*
X11145556Y35830000D01*
X10954445Y35830000D01*
X10860001Y35877778D01*
X10812223Y35925556D01*
X10764445Y36020000D01*
X10764445Y36306667D01*
X10812223Y36401111D01*
X10860001Y36448889D01*
X10954445Y36496667D01*
X11145556Y36496667D01*
X11241112Y36448889D01*
X12070001Y36496667D02*
X12070001Y35830000D01*
X11641112Y36496667D02*
X11641112Y35973333D01*
X11688890Y35877778D01*
X11784445Y35830000D01*
X11926668Y35830000D01*
X12022223Y35877778D01*
X12070001Y35925556D01*
X12517779Y35830000D02*
X12517779Y36496667D01*
X12517779Y36830000D02*
X12470001Y36782222D01*
X12517779Y36734444D01*
X12565557Y36782222D01*
X12517779Y36830000D01*
X12517779Y36734444D01*
X12965557Y36496667D02*
X12965557Y35830000D01*
X12965557Y36401111D02*
X13013335Y36448889D01*
X13108890Y36496667D01*
X13251113Y36496667D01*
X13346668Y36448889D01*
X13394446Y36353333D01*
X13394446Y35830000D01*
X13984446Y35830000D02*
X13890002Y35877778D01*
X13842224Y35925556D01*
X13794446Y36020000D01*
X13794446Y36306667D01*
X13842224Y36401111D01*
X13890002Y36448889D01*
X13984446Y36496667D01*
X14127779Y36496667D01*
X14223335Y36448889D01*
X14271113Y36401111D01*
X14317779Y36306667D01*
X14317779Y36020000D01*
X14271113Y35925556D01*
X14223335Y35877778D01*
X14127779Y35830000D01*
X13984446Y35830000D01*
X9131667Y33852223D02*
X9131667Y34852223D01*
X9512778Y34852223D01*
X9608334Y34804445D01*
X9655000Y34756667D01*
X9702778Y34662223D01*
X9702778Y34518890D01*
X9655000Y34423334D01*
X9608334Y34375556D01*
X9512778Y34328890D01*
X9131667Y34328890D01*
X10102778Y33852223D02*
X10102778Y34518890D01*
X10102778Y34328890D02*
X10150556Y34423334D01*
X10198334Y34471112D01*
X10292778Y34518890D01*
X10388334Y34518890D01*
X10978334Y33852223D02*
X10883890Y33900001D01*
X10836112Y33947779D01*
X10788334Y34042223D01*
X10788334Y34328890D01*
X10836112Y34423334D01*
X10883890Y34471112D01*
X10978334Y34518890D01*
X11121667Y34518890D01*
X11217223Y34471112D01*
X11265001Y34423334D01*
X11311667Y34328890D01*
X11311667Y34042223D01*
X11265001Y33947779D01*
X11217223Y33900001D01*
X11121667Y33852223D01*
X10978334Y33852223D01*
X12511666Y33852223D02*
X12511666Y34852223D01*
X12844999Y34137779D01*
X13178333Y34852223D01*
X13178333Y33852223D01*
X13626111Y33852223D02*
X13626111Y34518890D01*
X13626111Y34852223D02*
X13578333Y34804445D01*
X13626111Y34756667D01*
X13673889Y34804445D01*
X13626111Y34852223D01*
X13626111Y34756667D01*
X14073889Y34518890D02*
X14073889Y33852223D01*
X14073889Y34423334D02*
X14121667Y34471112D01*
X14217222Y34518890D01*
X14359445Y34518890D01*
X14455000Y34471112D01*
X14502778Y34375556D01*
X14502778Y33852223D01*
X14950556Y33852223D02*
X14950556Y34518890D01*
X14950556Y34852223D02*
X14902778Y34804445D01*
X14950556Y34756667D01*
X14998334Y34804445D01*
X14950556Y34852223D01*
X14950556Y34756667D01*
X6613334Y32874446D02*
X7232223Y32874446D01*
X6898890Y32493335D01*
X7042223Y32493335D01*
X7136667Y32445557D01*
X7184445Y32397779D01*
X7232223Y32303335D01*
X7232223Y32064446D01*
X7184445Y31970002D01*
X7136667Y31922224D01*
X7042223Y31874446D01*
X6756667Y31874446D01*
X6661112Y31922224D01*
X6613334Y31970002D01*
X7680001Y31970002D02*
X7727779Y31922224D01*
X7680001Y31874446D01*
X7632223Y31922224D01*
X7680001Y31970002D01*
X7680001Y31874446D01*
X8127779Y32874446D02*
X8746668Y32874446D01*
X8413335Y32493335D01*
X8556668Y32493335D01*
X8651112Y32445557D01*
X8698890Y32397779D01*
X8746668Y32303335D01*
X8746668Y32064446D01*
X8698890Y31970002D01*
X8651112Y31922224D01*
X8556668Y31874446D01*
X8271112Y31874446D01*
X8175557Y31922224D01*
X8127779Y31970002D01*
X9946667Y32874446D02*
X10280000Y31874446D01*
X10613334Y32874446D01*
X12098889Y31493335D02*
X12051111Y31541113D01*
X11956666Y31684446D01*
X11908889Y31778890D01*
X11861111Y31922224D01*
X11813333Y32160002D01*
X11813333Y32351113D01*
X11861111Y32588890D01*
X11908889Y32731113D01*
X11956666Y32826668D01*
X12051111Y32970002D01*
X12098889Y33017779D01*
X12688889Y32445557D02*
X12594445Y32493335D01*
X12546667Y32541113D01*
X12498889Y32636668D01*
X12498889Y32684446D01*
X12546667Y32778890D01*
X12594445Y32826668D01*
X12688889Y32874446D01*
X12880000Y32874446D01*
X12975556Y32826668D01*
X13022222Y32778890D01*
X13070000Y32684446D01*
X13070000Y32636668D01*
X13022222Y32541113D01*
X12975556Y32493335D01*
X12880000Y32445557D01*
X12688889Y32445557D01*
X12594445Y32397779D01*
X12546667Y32351113D01*
X12498889Y32255557D01*
X12498889Y32064446D01*
X12546667Y31970002D01*
X12594445Y31922224D01*
X12688889Y31874446D01*
X12880000Y31874446D01*
X12975556Y31922224D01*
X13022222Y31970002D01*
X13070000Y32064446D01*
X13070000Y32255557D01*
X13022222Y32351113D01*
X12975556Y32397779D01*
X12880000Y32445557D01*
X14269999Y31874446D02*
X14269999Y32874446D01*
X14603332Y32160002D01*
X14936666Y32874446D01*
X14936666Y31874446D01*
X15336666Y31874446D02*
X15336666Y32874446D01*
X15336666Y32397779D02*
X15907777Y32397779D01*
X15907777Y31874446D02*
X15907777Y32874446D01*
X16307777Y32541113D02*
X16831110Y32541113D01*
X16307777Y31874446D01*
X16831110Y31874446D01*
X17231110Y31493335D02*
X17278888Y31541113D01*
X17374443Y31684446D01*
X17421110Y31778890D01*
X17468888Y31922224D01*
X17516666Y32160002D01*
X17516666Y32351113D01*
X17468888Y32588890D01*
X17421110Y32731113D01*
X17374443Y32826668D01*
X17278888Y32970002D01*
X17231110Y33017779D01*
%LPC*%
D13*
X26035000Y12700000D03*
D14*
X23495000Y12700000D03*
D13*
X26035000Y18415000D03*
D14*
X23495000Y18415000D03*
D15*
X26035000Y31115000D03*
D16*
X26035000Y38735000D03*
D15*
X26035000Y33655000D03*
X26035000Y36195000D03*
X13970000Y1905000D03*
D16*
X13970000Y4445000D03*
D17*
X4445000Y13335000D03*
D18*
X19685000Y31115000D03*
D17*
X19685000Y23495000D03*
D19*
X4445000Y38735000D03*
D17*
X19685000Y36195000D03*
X19685000Y33655000D03*
X4445000Y20955000D03*
X4445000Y26035000D03*
X4445000Y33655000D03*
X4445000Y28575000D03*
X19685000Y18415000D03*
D18*
X19685000Y26035000D03*
X17145000Y29845000D03*
X17145000Y27305000D03*
D17*
X19685000Y10795000D03*
X19685000Y20955000D03*
X4445000Y15875000D03*
X4445000Y10795000D03*
X4445000Y36195000D03*
D18*
X19685000Y28575000D03*
D17*
X4445000Y18415000D03*
X4445000Y31115000D03*
X19685000Y15875000D03*
X19685000Y38735000D03*
X4445000Y23495000D03*
X19685000Y13335000D03*
D15*
X19050000Y1905000D03*
D16*
X19050000Y4445000D03*
D13*
X26035000Y10160000D03*
D14*
X23495000Y10160000D03*
D15*
X16510000Y1905000D03*
D16*
X16510000Y4445000D03*
D15*
X11430000Y1905000D03*
D16*
X11430000Y4445000D03*
D13*
X26035000Y20955000D03*
D14*
X23495000Y20955000D03*
G04 --- BOARD END --- *
%TF.MD5,731b633076b56dbce357a3c7b3c8bd14*%
M02*
