G04 MADE WITH FRITZING*
G04 WWW.FRITZING.ORG*
G04 DOUBLE SIDED*
G04 HOLES PLATED*
G04 CONTOUR ON CENTER OF CONTOUR VECTOR*
%ASAXBY*%
%FSLAX23Y23*%
%MOIN*%
%OFA0B0*%
%SFA1.0B1.0*%
%ADD10C,0.075000*%
%ADD11C,0.070000*%
%ADD12C,0.078000*%
%ADD13R,0.070000X0.069972*%
%ADD14C,0.024000*%
%LNCOPPER1*%
G90*
G70*
G54D10*
X1478Y1120D03*
G54D11*
X1629Y857D03*
X1529Y857D03*
X1429Y857D03*
X1329Y857D03*
X1229Y857D03*
X1129Y857D03*
X1029Y857D03*
X929Y857D03*
X829Y857D03*
X729Y857D03*
X629Y857D03*
X529Y857D03*
X429Y857D03*
X329Y857D03*
X229Y857D03*
X1629Y257D03*
X1529Y257D03*
X1429Y257D03*
X1329Y257D03*
X1229Y257D03*
X1129Y257D03*
X1029Y257D03*
X929Y257D03*
X829Y257D03*
X729Y257D03*
X629Y257D03*
X529Y257D03*
X429Y257D03*
X329Y257D03*
X229Y257D03*
G54D10*
X929Y357D03*
X929Y757D03*
X1029Y357D03*
X1029Y757D03*
X1129Y357D03*
X1129Y757D03*
X1229Y357D03*
X1229Y757D03*
G54D12*
X1379Y1107D03*
X1379Y1007D03*
X1279Y1107D03*
X1279Y1007D03*
X1179Y1107D03*
X1179Y1007D03*
X1079Y1107D03*
X1079Y1007D03*
X1029Y107D03*
X1129Y107D03*
X1229Y107D03*
X1329Y107D03*
X729Y1007D03*
X729Y1107D03*
X829Y1007D03*
X829Y1107D03*
X329Y1007D03*
X329Y1107D03*
X429Y1007D03*
X429Y1107D03*
G54D13*
X1629Y857D03*
G54D14*
X429Y1037D02*
X429Y1077D01*
D02*
X729Y886D02*
X729Y977D01*
D02*
X245Y881D02*
X312Y982D01*
D02*
X924Y224D02*
X925Y228D01*
D02*
X1116Y152D02*
X924Y224D01*
D02*
X1121Y136D02*
X1116Y152D01*
D02*
X1038Y885D02*
X1069Y979D01*
D02*
X929Y786D02*
X929Y828D01*
D02*
X1129Y786D02*
X1129Y828D01*
D02*
X948Y1016D02*
X932Y886D01*
D02*
X1054Y1090D02*
X948Y1016D01*
D02*
X1157Y357D02*
X1200Y357D01*
D02*
X957Y357D02*
X1000Y357D01*
D02*
X1329Y137D02*
X1329Y228D01*
D02*
X396Y968D02*
X409Y984D01*
D02*
X344Y882D02*
X396Y968D01*
D02*
X1259Y1130D02*
X1212Y1184D01*
D02*
X1020Y1184D02*
X857Y1118D01*
D02*
X1212Y1184D02*
X1020Y1184D01*
D02*
X1279Y1037D02*
X1279Y1077D01*
D02*
X1319Y885D02*
X1288Y979D01*
G36*
X40Y1180D02*
X40Y1128D01*
X60Y1128D01*
X60Y1134D01*
X62Y1134D01*
X62Y1138D01*
X64Y1138D01*
X64Y1142D01*
X66Y1142D01*
X66Y1146D01*
X68Y1146D01*
X68Y1148D01*
X70Y1148D01*
X70Y1152D01*
X72Y1152D01*
X72Y1154D01*
X74Y1154D01*
X74Y1156D01*
X76Y1156D01*
X76Y1158D01*
X78Y1158D01*
X78Y1160D01*
X80Y1160D01*
X80Y1180D01*
X40Y1180D01*
G37*
D02*
G36*
X1728Y1180D02*
X1728Y1160D01*
X1730Y1160D01*
X1730Y1158D01*
X1732Y1158D01*
X1732Y1156D01*
X1734Y1156D01*
X1734Y1152D01*
X1736Y1152D01*
X1736Y1150D01*
X1738Y1150D01*
X1738Y1148D01*
X1740Y1148D01*
X1740Y1144D01*
X1742Y1144D01*
X1742Y1140D01*
X1744Y1140D01*
X1744Y1136D01*
X1746Y1136D01*
X1746Y1132D01*
X1748Y1132D01*
X1748Y1126D01*
X1750Y1126D01*
X1750Y1116D01*
X1770Y1116D01*
X1770Y1180D01*
X1728Y1180D01*
G37*
D02*
G36*
X1016Y1038D02*
X1016Y1036D01*
X1014Y1036D01*
X1014Y1034D01*
X1012Y1034D01*
X1012Y1032D01*
X1008Y1032D01*
X1008Y1030D01*
X1006Y1030D01*
X1006Y1028D01*
X1002Y1028D01*
X1002Y1026D01*
X1000Y1026D01*
X1000Y1024D01*
X996Y1024D01*
X996Y1022D01*
X994Y1022D01*
X994Y1020D01*
X990Y1020D01*
X990Y1018D01*
X988Y1018D01*
X988Y1016D01*
X986Y1016D01*
X986Y1014D01*
X982Y1014D01*
X982Y1012D01*
X980Y1012D01*
X980Y1010D01*
X976Y1010D01*
X976Y1008D01*
X974Y1008D01*
X974Y1006D01*
X970Y1006D01*
X970Y1004D01*
X968Y1004D01*
X968Y990D01*
X966Y990D01*
X966Y974D01*
X964Y974D01*
X964Y958D01*
X962Y958D01*
X962Y940D01*
X960Y940D01*
X960Y924D01*
X958Y924D01*
X958Y890D01*
X960Y890D01*
X960Y888D01*
X962Y888D01*
X962Y886D01*
X964Y886D01*
X964Y882D01*
X966Y882D01*
X966Y880D01*
X968Y880D01*
X968Y876D01*
X988Y876D01*
X988Y878D01*
X990Y878D01*
X990Y882D01*
X992Y882D01*
X992Y884D01*
X994Y884D01*
X994Y886D01*
X996Y886D01*
X996Y888D01*
X998Y888D01*
X998Y890D01*
X1000Y890D01*
X1000Y892D01*
X1002Y892D01*
X1002Y894D01*
X1006Y894D01*
X1006Y896D01*
X1010Y896D01*
X1010Y898D01*
X1014Y898D01*
X1014Y900D01*
X1020Y900D01*
X1020Y904D01*
X1022Y904D01*
X1022Y910D01*
X1024Y910D01*
X1024Y916D01*
X1026Y916D01*
X1026Y922D01*
X1028Y922D01*
X1028Y928D01*
X1030Y928D01*
X1030Y934D01*
X1032Y934D01*
X1032Y940D01*
X1034Y940D01*
X1034Y946D01*
X1036Y946D01*
X1036Y952D01*
X1038Y952D01*
X1038Y958D01*
X1040Y958D01*
X1040Y978D01*
X1038Y978D01*
X1038Y982D01*
X1036Y982D01*
X1036Y984D01*
X1034Y984D01*
X1034Y990D01*
X1032Y990D01*
X1032Y996D01*
X1030Y996D01*
X1030Y1018D01*
X1032Y1018D01*
X1032Y1024D01*
X1034Y1024D01*
X1034Y1028D01*
X1036Y1028D01*
X1036Y1038D01*
X1016Y1038D01*
G37*
D02*
G36*
X1022Y1162D02*
X1022Y1160D01*
X1016Y1160D01*
X1016Y1158D01*
X1012Y1158D01*
X1012Y1156D01*
X1006Y1156D01*
X1006Y1154D01*
X1002Y1154D01*
X1002Y1152D01*
X998Y1152D01*
X998Y1150D01*
X992Y1150D01*
X992Y1148D01*
X988Y1148D01*
X988Y1146D01*
X982Y1146D01*
X982Y1144D01*
X978Y1144D01*
X978Y1142D01*
X972Y1142D01*
X972Y1140D01*
X968Y1140D01*
X968Y1138D01*
X962Y1138D01*
X962Y1136D01*
X958Y1136D01*
X958Y1134D01*
X952Y1134D01*
X952Y1132D01*
X948Y1132D01*
X948Y1130D01*
X942Y1130D01*
X942Y1128D01*
X938Y1128D01*
X938Y1126D01*
X932Y1126D01*
X932Y1124D01*
X928Y1124D01*
X928Y1122D01*
X922Y1122D01*
X922Y1120D01*
X918Y1120D01*
X918Y1118D01*
X912Y1118D01*
X912Y1116D01*
X908Y1116D01*
X908Y1114D01*
X904Y1114D01*
X904Y1112D01*
X898Y1112D01*
X898Y1110D01*
X894Y1110D01*
X894Y1108D01*
X888Y1108D01*
X888Y1106D01*
X884Y1106D01*
X884Y1104D01*
X878Y1104D01*
X878Y1100D01*
X876Y1100D01*
X876Y1092D01*
X874Y1092D01*
X874Y1086D01*
X872Y1086D01*
X872Y1082D01*
X870Y1082D01*
X870Y1080D01*
X868Y1080D01*
X868Y1076D01*
X866Y1076D01*
X866Y1074D01*
X864Y1074D01*
X864Y1072D01*
X862Y1072D01*
X862Y1070D01*
X860Y1070D01*
X860Y1068D01*
X858Y1068D01*
X858Y1066D01*
X856Y1066D01*
X856Y1046D01*
X858Y1046D01*
X858Y1044D01*
X862Y1044D01*
X862Y1042D01*
X864Y1042D01*
X864Y1040D01*
X866Y1040D01*
X866Y1036D01*
X868Y1036D01*
X868Y1034D01*
X870Y1034D01*
X870Y1030D01*
X872Y1030D01*
X872Y1028D01*
X874Y1028D01*
X874Y1022D01*
X876Y1022D01*
X876Y1014D01*
X878Y1014D01*
X878Y1000D01*
X876Y1000D01*
X876Y992D01*
X874Y992D01*
X874Y986D01*
X872Y986D01*
X872Y982D01*
X870Y982D01*
X870Y980D01*
X868Y980D01*
X868Y976D01*
X866Y976D01*
X866Y974D01*
X864Y974D01*
X864Y972D01*
X862Y972D01*
X862Y970D01*
X860Y970D01*
X860Y968D01*
X858Y968D01*
X858Y966D01*
X854Y966D01*
X854Y964D01*
X850Y964D01*
X850Y962D01*
X846Y962D01*
X846Y960D01*
X840Y960D01*
X840Y958D01*
X918Y958D01*
X918Y960D01*
X920Y960D01*
X920Y976D01*
X922Y976D01*
X922Y992D01*
X924Y992D01*
X924Y1010D01*
X926Y1010D01*
X926Y1022D01*
X928Y1022D01*
X928Y1028D01*
X930Y1028D01*
X930Y1030D01*
X932Y1030D01*
X932Y1032D01*
X934Y1032D01*
X934Y1034D01*
X936Y1034D01*
X936Y1036D01*
X940Y1036D01*
X940Y1038D01*
X942Y1038D01*
X942Y1040D01*
X946Y1040D01*
X946Y1042D01*
X948Y1042D01*
X948Y1044D01*
X952Y1044D01*
X952Y1046D01*
X954Y1046D01*
X954Y1048D01*
X956Y1048D01*
X956Y1050D01*
X960Y1050D01*
X960Y1052D01*
X962Y1052D01*
X962Y1054D01*
X966Y1054D01*
X966Y1056D01*
X968Y1056D01*
X968Y1058D01*
X972Y1058D01*
X972Y1060D01*
X974Y1060D01*
X974Y1062D01*
X978Y1062D01*
X978Y1064D01*
X980Y1064D01*
X980Y1066D01*
X982Y1066D01*
X982Y1068D01*
X986Y1068D01*
X986Y1070D01*
X988Y1070D01*
X988Y1072D01*
X992Y1072D01*
X992Y1074D01*
X994Y1074D01*
X994Y1076D01*
X998Y1076D01*
X998Y1078D01*
X1000Y1078D01*
X1000Y1080D01*
X1004Y1080D01*
X1004Y1082D01*
X1006Y1082D01*
X1006Y1084D01*
X1008Y1084D01*
X1008Y1086D01*
X1012Y1086D01*
X1012Y1088D01*
X1014Y1088D01*
X1014Y1090D01*
X1018Y1090D01*
X1018Y1092D01*
X1020Y1092D01*
X1020Y1094D01*
X1024Y1094D01*
X1024Y1096D01*
X1026Y1096D01*
X1026Y1098D01*
X1028Y1098D01*
X1028Y1100D01*
X1030Y1100D01*
X1030Y1118D01*
X1032Y1118D01*
X1032Y1124D01*
X1034Y1124D01*
X1034Y1128D01*
X1036Y1128D01*
X1036Y1132D01*
X1038Y1132D01*
X1038Y1136D01*
X1040Y1136D01*
X1040Y1138D01*
X1042Y1138D01*
X1042Y1140D01*
X1044Y1140D01*
X1044Y1142D01*
X1046Y1142D01*
X1046Y1162D01*
X1022Y1162D01*
G37*
D02*
G36*
X768Y980D02*
X768Y976D01*
X766Y976D01*
X766Y974D01*
X764Y974D01*
X764Y972D01*
X762Y972D01*
X762Y970D01*
X760Y970D01*
X760Y968D01*
X758Y968D01*
X758Y966D01*
X754Y966D01*
X754Y964D01*
X750Y964D01*
X750Y958D01*
X818Y958D01*
X818Y960D01*
X812Y960D01*
X812Y962D01*
X806Y962D01*
X806Y964D01*
X804Y964D01*
X804Y966D01*
X800Y966D01*
X800Y968D01*
X798Y968D01*
X798Y970D01*
X796Y970D01*
X796Y972D01*
X794Y972D01*
X794Y974D01*
X792Y974D01*
X792Y976D01*
X790Y976D01*
X790Y978D01*
X788Y978D01*
X788Y980D01*
X768Y980D01*
G37*
D02*
G36*
X750Y958D02*
X750Y956D01*
X918Y956D01*
X918Y958D01*
X750Y958D01*
G37*
D02*
G36*
X750Y958D02*
X750Y956D01*
X918Y956D01*
X918Y958D01*
X750Y958D01*
G37*
D02*
G36*
X750Y956D02*
X750Y902D01*
X836Y902D01*
X836Y900D01*
X844Y900D01*
X844Y898D01*
X848Y898D01*
X848Y896D01*
X852Y896D01*
X852Y894D01*
X854Y894D01*
X854Y892D01*
X858Y892D01*
X858Y890D01*
X860Y890D01*
X860Y888D01*
X862Y888D01*
X862Y886D01*
X864Y886D01*
X864Y882D01*
X866Y882D01*
X866Y880D01*
X868Y880D01*
X868Y876D01*
X888Y876D01*
X888Y878D01*
X890Y878D01*
X890Y882D01*
X892Y882D01*
X892Y884D01*
X894Y884D01*
X894Y886D01*
X896Y886D01*
X896Y888D01*
X898Y888D01*
X898Y890D01*
X900Y890D01*
X900Y892D01*
X902Y892D01*
X902Y894D01*
X906Y894D01*
X906Y896D01*
X910Y896D01*
X910Y898D01*
X912Y898D01*
X912Y910D01*
X914Y910D01*
X914Y926D01*
X916Y926D01*
X916Y944D01*
X918Y944D01*
X918Y956D01*
X750Y956D01*
G37*
D02*
G36*
X750Y902D02*
X750Y896D01*
X752Y896D01*
X752Y894D01*
X754Y894D01*
X754Y892D01*
X758Y892D01*
X758Y890D01*
X760Y890D01*
X760Y888D01*
X762Y888D01*
X762Y886D01*
X764Y886D01*
X764Y882D01*
X766Y882D01*
X766Y880D01*
X768Y880D01*
X768Y876D01*
X788Y876D01*
X788Y878D01*
X790Y878D01*
X790Y882D01*
X792Y882D01*
X792Y884D01*
X794Y884D01*
X794Y886D01*
X796Y886D01*
X796Y888D01*
X798Y888D01*
X798Y890D01*
X800Y890D01*
X800Y892D01*
X802Y892D01*
X802Y894D01*
X806Y894D01*
X806Y896D01*
X810Y896D01*
X810Y898D01*
X814Y898D01*
X814Y900D01*
X822Y900D01*
X822Y902D01*
X750Y902D01*
G37*
D02*
G36*
X1118Y980D02*
X1118Y976D01*
X1116Y976D01*
X1116Y974D01*
X1114Y974D01*
X1114Y972D01*
X1112Y972D01*
X1112Y970D01*
X1110Y970D01*
X1110Y968D01*
X1108Y968D01*
X1108Y966D01*
X1104Y966D01*
X1104Y964D01*
X1100Y964D01*
X1100Y962D01*
X1096Y962D01*
X1096Y960D01*
X1090Y960D01*
X1090Y958D01*
X1168Y958D01*
X1168Y960D01*
X1162Y960D01*
X1162Y962D01*
X1156Y962D01*
X1156Y964D01*
X1154Y964D01*
X1154Y966D01*
X1150Y966D01*
X1150Y968D01*
X1148Y968D01*
X1148Y970D01*
X1146Y970D01*
X1146Y972D01*
X1144Y972D01*
X1144Y974D01*
X1142Y974D01*
X1142Y976D01*
X1140Y976D01*
X1140Y978D01*
X1138Y978D01*
X1138Y980D01*
X1118Y980D01*
G37*
D02*
G36*
X1218Y980D02*
X1218Y976D01*
X1216Y976D01*
X1216Y974D01*
X1214Y974D01*
X1214Y972D01*
X1212Y972D01*
X1212Y970D01*
X1210Y970D01*
X1210Y968D01*
X1208Y968D01*
X1208Y966D01*
X1204Y966D01*
X1204Y964D01*
X1200Y964D01*
X1200Y962D01*
X1196Y962D01*
X1196Y960D01*
X1190Y960D01*
X1190Y958D01*
X1268Y958D01*
X1268Y960D01*
X1262Y960D01*
X1262Y962D01*
X1256Y962D01*
X1256Y964D01*
X1254Y964D01*
X1254Y966D01*
X1250Y966D01*
X1250Y968D01*
X1248Y968D01*
X1248Y970D01*
X1246Y970D01*
X1246Y972D01*
X1244Y972D01*
X1244Y974D01*
X1242Y974D01*
X1242Y976D01*
X1240Y976D01*
X1240Y978D01*
X1238Y978D01*
X1238Y980D01*
X1218Y980D01*
G37*
D02*
G36*
X1086Y958D02*
X1086Y956D01*
X1272Y956D01*
X1272Y958D01*
X1086Y958D01*
G37*
D02*
G36*
X1086Y958D02*
X1086Y956D01*
X1272Y956D01*
X1272Y958D01*
X1086Y958D01*
G37*
D02*
G36*
X1084Y956D02*
X1084Y950D01*
X1082Y950D01*
X1082Y944D01*
X1080Y944D01*
X1080Y938D01*
X1078Y938D01*
X1078Y932D01*
X1076Y932D01*
X1076Y926D01*
X1074Y926D01*
X1074Y920D01*
X1072Y920D01*
X1072Y914D01*
X1070Y914D01*
X1070Y908D01*
X1068Y908D01*
X1068Y902D01*
X1236Y902D01*
X1236Y900D01*
X1244Y900D01*
X1244Y898D01*
X1248Y898D01*
X1248Y896D01*
X1252Y896D01*
X1252Y894D01*
X1254Y894D01*
X1254Y892D01*
X1258Y892D01*
X1258Y890D01*
X1260Y890D01*
X1260Y888D01*
X1262Y888D01*
X1262Y886D01*
X1264Y886D01*
X1264Y882D01*
X1266Y882D01*
X1266Y880D01*
X1268Y880D01*
X1268Y876D01*
X1288Y876D01*
X1288Y878D01*
X1290Y878D01*
X1290Y906D01*
X1288Y906D01*
X1288Y912D01*
X1286Y912D01*
X1286Y918D01*
X1284Y918D01*
X1284Y924D01*
X1282Y924D01*
X1282Y930D01*
X1280Y930D01*
X1280Y936D01*
X1278Y936D01*
X1278Y942D01*
X1276Y942D01*
X1276Y948D01*
X1274Y948D01*
X1274Y954D01*
X1272Y954D01*
X1272Y956D01*
X1084Y956D01*
G37*
D02*
G36*
X1066Y902D02*
X1066Y880D01*
X1068Y880D01*
X1068Y876D01*
X1088Y876D01*
X1088Y878D01*
X1090Y878D01*
X1090Y882D01*
X1092Y882D01*
X1092Y884D01*
X1094Y884D01*
X1094Y886D01*
X1096Y886D01*
X1096Y888D01*
X1098Y888D01*
X1098Y890D01*
X1100Y890D01*
X1100Y892D01*
X1102Y892D01*
X1102Y894D01*
X1106Y894D01*
X1106Y896D01*
X1110Y896D01*
X1110Y898D01*
X1114Y898D01*
X1114Y900D01*
X1122Y900D01*
X1122Y902D01*
X1066Y902D01*
G37*
D02*
G36*
X1136Y902D02*
X1136Y900D01*
X1144Y900D01*
X1144Y898D01*
X1148Y898D01*
X1148Y896D01*
X1152Y896D01*
X1152Y894D01*
X1154Y894D01*
X1154Y892D01*
X1158Y892D01*
X1158Y890D01*
X1160Y890D01*
X1160Y888D01*
X1162Y888D01*
X1162Y886D01*
X1164Y886D01*
X1164Y882D01*
X1166Y882D01*
X1166Y880D01*
X1168Y880D01*
X1168Y876D01*
X1188Y876D01*
X1188Y878D01*
X1190Y878D01*
X1190Y882D01*
X1192Y882D01*
X1192Y884D01*
X1194Y884D01*
X1194Y886D01*
X1196Y886D01*
X1196Y888D01*
X1198Y888D01*
X1198Y890D01*
X1200Y890D01*
X1200Y892D01*
X1202Y892D01*
X1202Y894D01*
X1206Y894D01*
X1206Y896D01*
X1210Y896D01*
X1210Y898D01*
X1214Y898D01*
X1214Y900D01*
X1222Y900D01*
X1222Y902D01*
X1136Y902D01*
G37*
D02*
G36*
X322Y958D02*
X322Y956D01*
X320Y956D01*
X320Y952D01*
X318Y952D01*
X318Y950D01*
X316Y950D01*
X316Y946D01*
X314Y946D01*
X314Y944D01*
X312Y944D01*
X312Y940D01*
X310Y940D01*
X310Y938D01*
X308Y938D01*
X308Y934D01*
X306Y934D01*
X306Y932D01*
X304Y932D01*
X304Y928D01*
X302Y928D01*
X302Y926D01*
X300Y926D01*
X300Y922D01*
X298Y922D01*
X298Y920D01*
X296Y920D01*
X296Y916D01*
X294Y916D01*
X294Y914D01*
X292Y914D01*
X292Y910D01*
X290Y910D01*
X290Y908D01*
X288Y908D01*
X288Y904D01*
X286Y904D01*
X286Y902D01*
X284Y902D01*
X284Y898D01*
X282Y898D01*
X282Y896D01*
X280Y896D01*
X280Y892D01*
X278Y892D01*
X278Y890D01*
X276Y890D01*
X276Y886D01*
X274Y886D01*
X274Y884D01*
X272Y884D01*
X272Y882D01*
X292Y882D01*
X292Y884D01*
X294Y884D01*
X294Y886D01*
X296Y886D01*
X296Y888D01*
X298Y888D01*
X298Y890D01*
X300Y890D01*
X300Y892D01*
X302Y892D01*
X302Y894D01*
X306Y894D01*
X306Y896D01*
X310Y896D01*
X310Y898D01*
X314Y898D01*
X314Y900D01*
X322Y900D01*
X322Y902D01*
X330Y902D01*
X330Y904D01*
X332Y904D01*
X332Y906D01*
X334Y906D01*
X334Y910D01*
X336Y910D01*
X336Y912D01*
X338Y912D01*
X338Y916D01*
X340Y916D01*
X340Y920D01*
X342Y920D01*
X342Y922D01*
X344Y922D01*
X344Y926D01*
X346Y926D01*
X346Y930D01*
X348Y930D01*
X348Y932D01*
X350Y932D01*
X350Y936D01*
X352Y936D01*
X352Y940D01*
X354Y940D01*
X354Y942D01*
X356Y942D01*
X356Y946D01*
X358Y946D01*
X358Y958D01*
X322Y958D01*
G37*
D02*
G36*
X968Y838D02*
X968Y834D01*
X966Y834D01*
X966Y830D01*
X964Y830D01*
X964Y828D01*
X962Y828D01*
X962Y826D01*
X960Y826D01*
X960Y824D01*
X958Y824D01*
X958Y822D01*
X956Y822D01*
X956Y820D01*
X954Y820D01*
X954Y818D01*
X950Y818D01*
X950Y798D01*
X954Y798D01*
X954Y796D01*
X956Y796D01*
X956Y794D01*
X958Y794D01*
X958Y792D01*
X962Y792D01*
X962Y790D01*
X964Y790D01*
X964Y786D01*
X966Y786D01*
X966Y784D01*
X968Y784D01*
X968Y782D01*
X990Y782D01*
X990Y786D01*
X992Y786D01*
X992Y788D01*
X994Y788D01*
X994Y790D01*
X996Y790D01*
X996Y792D01*
X998Y792D01*
X998Y794D01*
X1000Y794D01*
X1000Y796D01*
X1004Y796D01*
X1004Y798D01*
X1008Y798D01*
X1008Y818D01*
X1004Y818D01*
X1004Y820D01*
X1002Y820D01*
X1002Y822D01*
X1000Y822D01*
X1000Y824D01*
X996Y824D01*
X996Y828D01*
X994Y828D01*
X994Y830D01*
X992Y830D01*
X992Y832D01*
X990Y832D01*
X990Y836D01*
X988Y836D01*
X988Y838D01*
X968Y838D01*
G37*
D02*
G36*
X1068Y838D02*
X1068Y834D01*
X1066Y834D01*
X1066Y830D01*
X1064Y830D01*
X1064Y828D01*
X1062Y828D01*
X1062Y826D01*
X1060Y826D01*
X1060Y824D01*
X1058Y824D01*
X1058Y822D01*
X1056Y822D01*
X1056Y820D01*
X1054Y820D01*
X1054Y818D01*
X1050Y818D01*
X1050Y798D01*
X1054Y798D01*
X1054Y796D01*
X1056Y796D01*
X1056Y794D01*
X1058Y794D01*
X1058Y792D01*
X1062Y792D01*
X1062Y790D01*
X1064Y790D01*
X1064Y786D01*
X1066Y786D01*
X1066Y784D01*
X1068Y784D01*
X1068Y782D01*
X1090Y782D01*
X1090Y786D01*
X1092Y786D01*
X1092Y788D01*
X1094Y788D01*
X1094Y790D01*
X1096Y790D01*
X1096Y792D01*
X1098Y792D01*
X1098Y794D01*
X1100Y794D01*
X1100Y796D01*
X1104Y796D01*
X1104Y798D01*
X1106Y798D01*
X1106Y818D01*
X1104Y818D01*
X1104Y820D01*
X1102Y820D01*
X1102Y822D01*
X1100Y822D01*
X1100Y824D01*
X1096Y824D01*
X1096Y828D01*
X1094Y828D01*
X1094Y830D01*
X1092Y830D01*
X1092Y832D01*
X1090Y832D01*
X1090Y836D01*
X1088Y836D01*
X1088Y838D01*
X1068Y838D01*
G37*
D02*
G36*
X1168Y838D02*
X1168Y834D01*
X1166Y834D01*
X1166Y830D01*
X1164Y830D01*
X1164Y828D01*
X1162Y828D01*
X1162Y826D01*
X1160Y826D01*
X1160Y824D01*
X1158Y824D01*
X1158Y822D01*
X1156Y822D01*
X1156Y820D01*
X1154Y820D01*
X1154Y818D01*
X1150Y818D01*
X1150Y798D01*
X1154Y798D01*
X1154Y796D01*
X1156Y796D01*
X1156Y794D01*
X1158Y794D01*
X1158Y792D01*
X1162Y792D01*
X1162Y790D01*
X1164Y790D01*
X1164Y786D01*
X1166Y786D01*
X1166Y784D01*
X1168Y784D01*
X1168Y782D01*
X1190Y782D01*
X1190Y786D01*
X1192Y786D01*
X1192Y788D01*
X1194Y788D01*
X1194Y790D01*
X1196Y790D01*
X1196Y792D01*
X1198Y792D01*
X1198Y794D01*
X1200Y794D01*
X1200Y796D01*
X1204Y796D01*
X1204Y798D01*
X1208Y798D01*
X1208Y818D01*
X1204Y818D01*
X1204Y820D01*
X1202Y820D01*
X1202Y822D01*
X1200Y822D01*
X1200Y824D01*
X1196Y824D01*
X1196Y828D01*
X1194Y828D01*
X1194Y830D01*
X1192Y830D01*
X1192Y832D01*
X1190Y832D01*
X1190Y836D01*
X1188Y836D01*
X1188Y838D01*
X1168Y838D01*
G37*
D02*
G36*
X968Y332D02*
X968Y328D01*
X966Y328D01*
X966Y326D01*
X964Y326D01*
X964Y324D01*
X962Y324D01*
X962Y322D01*
X960Y322D01*
X960Y320D01*
X958Y320D01*
X958Y318D01*
X954Y318D01*
X954Y316D01*
X950Y316D01*
X950Y296D01*
X952Y296D01*
X952Y294D01*
X954Y294D01*
X954Y292D01*
X958Y292D01*
X958Y290D01*
X960Y290D01*
X960Y288D01*
X962Y288D01*
X962Y286D01*
X964Y286D01*
X964Y282D01*
X966Y282D01*
X966Y280D01*
X968Y280D01*
X968Y276D01*
X988Y276D01*
X988Y278D01*
X990Y278D01*
X990Y282D01*
X992Y282D01*
X992Y284D01*
X994Y284D01*
X994Y286D01*
X996Y286D01*
X996Y288D01*
X998Y288D01*
X998Y290D01*
X1000Y290D01*
X1000Y292D01*
X1002Y292D01*
X1002Y294D01*
X1006Y294D01*
X1006Y316D01*
X1002Y316D01*
X1002Y318D01*
X1000Y318D01*
X1000Y320D01*
X998Y320D01*
X998Y322D01*
X996Y322D01*
X996Y324D01*
X994Y324D01*
X994Y326D01*
X992Y326D01*
X992Y328D01*
X990Y328D01*
X990Y330D01*
X988Y330D01*
X988Y332D01*
X968Y332D01*
G37*
D02*
G36*
X1068Y332D02*
X1068Y328D01*
X1066Y328D01*
X1066Y326D01*
X1064Y326D01*
X1064Y324D01*
X1062Y324D01*
X1062Y322D01*
X1060Y322D01*
X1060Y320D01*
X1058Y320D01*
X1058Y318D01*
X1054Y318D01*
X1054Y316D01*
X1050Y316D01*
X1050Y296D01*
X1052Y296D01*
X1052Y294D01*
X1054Y294D01*
X1054Y292D01*
X1058Y292D01*
X1058Y290D01*
X1060Y290D01*
X1060Y288D01*
X1062Y288D01*
X1062Y286D01*
X1064Y286D01*
X1064Y282D01*
X1066Y282D01*
X1066Y280D01*
X1068Y280D01*
X1068Y276D01*
X1088Y276D01*
X1088Y278D01*
X1090Y278D01*
X1090Y282D01*
X1092Y282D01*
X1092Y284D01*
X1094Y284D01*
X1094Y286D01*
X1096Y286D01*
X1096Y288D01*
X1098Y288D01*
X1098Y290D01*
X1100Y290D01*
X1100Y292D01*
X1102Y292D01*
X1102Y294D01*
X1106Y294D01*
X1106Y316D01*
X1102Y316D01*
X1102Y318D01*
X1100Y318D01*
X1100Y320D01*
X1098Y320D01*
X1098Y322D01*
X1096Y322D01*
X1096Y324D01*
X1094Y324D01*
X1094Y326D01*
X1092Y326D01*
X1092Y328D01*
X1090Y328D01*
X1090Y330D01*
X1088Y330D01*
X1088Y332D01*
X1068Y332D01*
G37*
D02*
G36*
X1168Y332D02*
X1168Y328D01*
X1166Y328D01*
X1166Y326D01*
X1164Y326D01*
X1164Y324D01*
X1162Y324D01*
X1162Y322D01*
X1160Y322D01*
X1160Y320D01*
X1158Y320D01*
X1158Y318D01*
X1154Y318D01*
X1154Y316D01*
X1150Y316D01*
X1150Y296D01*
X1152Y296D01*
X1152Y294D01*
X1154Y294D01*
X1154Y292D01*
X1158Y292D01*
X1158Y290D01*
X1160Y290D01*
X1160Y288D01*
X1162Y288D01*
X1162Y286D01*
X1164Y286D01*
X1164Y282D01*
X1166Y282D01*
X1166Y280D01*
X1168Y280D01*
X1168Y276D01*
X1188Y276D01*
X1188Y278D01*
X1190Y278D01*
X1190Y282D01*
X1192Y282D01*
X1192Y284D01*
X1194Y284D01*
X1194Y286D01*
X1196Y286D01*
X1196Y288D01*
X1198Y288D01*
X1198Y290D01*
X1200Y290D01*
X1200Y292D01*
X1202Y292D01*
X1202Y294D01*
X1206Y294D01*
X1206Y316D01*
X1202Y316D01*
X1202Y318D01*
X1200Y318D01*
X1200Y320D01*
X1198Y320D01*
X1198Y322D01*
X1196Y322D01*
X1196Y324D01*
X1194Y324D01*
X1194Y326D01*
X1192Y326D01*
X1192Y328D01*
X1190Y328D01*
X1190Y330D01*
X1188Y330D01*
X1188Y332D01*
X1168Y332D01*
G37*
D02*
G36*
X1068Y238D02*
X1068Y234D01*
X1066Y234D01*
X1066Y230D01*
X1064Y230D01*
X1064Y228D01*
X1062Y228D01*
X1062Y226D01*
X1060Y226D01*
X1060Y224D01*
X1058Y224D01*
X1058Y222D01*
X1056Y222D01*
X1056Y220D01*
X1054Y220D01*
X1054Y212D01*
X1118Y212D01*
X1118Y214D01*
X1112Y214D01*
X1112Y216D01*
X1108Y216D01*
X1108Y218D01*
X1104Y218D01*
X1104Y220D01*
X1102Y220D01*
X1102Y222D01*
X1100Y222D01*
X1100Y224D01*
X1096Y224D01*
X1096Y228D01*
X1094Y228D01*
X1094Y230D01*
X1092Y230D01*
X1092Y232D01*
X1090Y232D01*
X1090Y236D01*
X1088Y236D01*
X1088Y238D01*
X1068Y238D01*
G37*
D02*
G36*
X1168Y238D02*
X1168Y234D01*
X1166Y234D01*
X1166Y230D01*
X1164Y230D01*
X1164Y228D01*
X1162Y228D01*
X1162Y226D01*
X1160Y226D01*
X1160Y224D01*
X1158Y224D01*
X1158Y222D01*
X1156Y222D01*
X1156Y220D01*
X1154Y220D01*
X1154Y218D01*
X1150Y218D01*
X1150Y216D01*
X1146Y216D01*
X1146Y214D01*
X1138Y214D01*
X1138Y212D01*
X1218Y212D01*
X1218Y214D01*
X1212Y214D01*
X1212Y216D01*
X1208Y216D01*
X1208Y218D01*
X1204Y218D01*
X1204Y220D01*
X1202Y220D01*
X1202Y222D01*
X1200Y222D01*
X1200Y224D01*
X1196Y224D01*
X1196Y228D01*
X1194Y228D01*
X1194Y230D01*
X1192Y230D01*
X1192Y232D01*
X1190Y232D01*
X1190Y236D01*
X1188Y236D01*
X1188Y238D01*
X1168Y238D01*
G37*
D02*
G36*
X1268Y238D02*
X1268Y234D01*
X1266Y234D01*
X1266Y230D01*
X1264Y230D01*
X1264Y228D01*
X1262Y228D01*
X1262Y226D01*
X1260Y226D01*
X1260Y224D01*
X1258Y224D01*
X1258Y222D01*
X1256Y222D01*
X1256Y220D01*
X1254Y220D01*
X1254Y218D01*
X1250Y218D01*
X1250Y216D01*
X1246Y216D01*
X1246Y214D01*
X1238Y214D01*
X1238Y212D01*
X1306Y212D01*
X1306Y218D01*
X1304Y218D01*
X1304Y220D01*
X1302Y220D01*
X1302Y222D01*
X1300Y222D01*
X1300Y224D01*
X1296Y224D01*
X1296Y228D01*
X1294Y228D01*
X1294Y230D01*
X1292Y230D01*
X1292Y232D01*
X1290Y232D01*
X1290Y236D01*
X1288Y236D01*
X1288Y238D01*
X1268Y238D01*
G37*
D02*
G36*
X1054Y212D02*
X1054Y210D01*
X1306Y210D01*
X1306Y212D01*
X1054Y212D01*
G37*
D02*
G36*
X1054Y212D02*
X1054Y210D01*
X1306Y210D01*
X1306Y212D01*
X1054Y212D01*
G37*
D02*
G36*
X1054Y212D02*
X1054Y210D01*
X1306Y210D01*
X1306Y212D01*
X1054Y212D01*
G37*
D02*
G36*
X1054Y210D02*
X1054Y198D01*
X1058Y198D01*
X1058Y196D01*
X1064Y196D01*
X1064Y194D01*
X1070Y194D01*
X1070Y192D01*
X1074Y192D01*
X1074Y190D01*
X1080Y190D01*
X1080Y188D01*
X1086Y188D01*
X1086Y186D01*
X1090Y186D01*
X1090Y184D01*
X1096Y184D01*
X1096Y182D01*
X1102Y182D01*
X1102Y180D01*
X1106Y180D01*
X1106Y178D01*
X1112Y178D01*
X1112Y176D01*
X1118Y176D01*
X1118Y174D01*
X1122Y174D01*
X1122Y172D01*
X1126Y172D01*
X1126Y170D01*
X1130Y170D01*
X1130Y168D01*
X1132Y168D01*
X1132Y166D01*
X1134Y166D01*
X1134Y162D01*
X1136Y162D01*
X1136Y158D01*
X1138Y158D01*
X1138Y156D01*
X1236Y156D01*
X1236Y154D01*
X1244Y154D01*
X1244Y152D01*
X1250Y152D01*
X1250Y150D01*
X1252Y150D01*
X1252Y148D01*
X1256Y148D01*
X1256Y146D01*
X1258Y146D01*
X1258Y144D01*
X1262Y144D01*
X1262Y142D01*
X1264Y142D01*
X1264Y140D01*
X1266Y140D01*
X1266Y136D01*
X1268Y136D01*
X1268Y134D01*
X1288Y134D01*
X1288Y136D01*
X1290Y136D01*
X1290Y138D01*
X1292Y138D01*
X1292Y140D01*
X1294Y140D01*
X1294Y142D01*
X1296Y142D01*
X1296Y144D01*
X1298Y144D01*
X1298Y146D01*
X1302Y146D01*
X1302Y148D01*
X1304Y148D01*
X1304Y150D01*
X1306Y150D01*
X1306Y210D01*
X1054Y210D01*
G37*
D02*
G36*
X1138Y156D02*
X1138Y154D01*
X1144Y154D01*
X1144Y152D01*
X1150Y152D01*
X1150Y150D01*
X1152Y150D01*
X1152Y148D01*
X1156Y148D01*
X1156Y146D01*
X1158Y146D01*
X1158Y144D01*
X1162Y144D01*
X1162Y142D01*
X1164Y142D01*
X1164Y140D01*
X1166Y140D01*
X1166Y136D01*
X1168Y136D01*
X1168Y134D01*
X1188Y134D01*
X1188Y136D01*
X1190Y136D01*
X1190Y138D01*
X1192Y138D01*
X1192Y140D01*
X1194Y140D01*
X1194Y142D01*
X1196Y142D01*
X1196Y144D01*
X1198Y144D01*
X1198Y146D01*
X1202Y146D01*
X1202Y148D01*
X1204Y148D01*
X1204Y150D01*
X1208Y150D01*
X1208Y152D01*
X1214Y152D01*
X1214Y154D01*
X1222Y154D01*
X1222Y156D01*
X1138Y156D01*
G37*
D02*
G36*
X178Y1180D02*
X178Y1160D01*
X180Y1160D01*
X180Y1158D01*
X182Y1158D01*
X182Y1156D01*
X836Y1156D01*
X836Y1154D01*
X844Y1154D01*
X844Y1152D01*
X850Y1152D01*
X850Y1150D01*
X852Y1150D01*
X852Y1148D01*
X874Y1148D01*
X874Y1150D01*
X880Y1150D01*
X880Y1152D01*
X884Y1152D01*
X884Y1154D01*
X890Y1154D01*
X890Y1156D01*
X894Y1156D01*
X894Y1158D01*
X900Y1158D01*
X900Y1160D01*
X904Y1160D01*
X904Y1180D01*
X178Y1180D01*
G37*
D02*
G36*
X1260Y1180D02*
X1260Y1160D01*
X1262Y1160D01*
X1262Y1158D01*
X1264Y1158D01*
X1264Y1156D01*
X1386Y1156D01*
X1386Y1154D01*
X1394Y1154D01*
X1394Y1152D01*
X1400Y1152D01*
X1400Y1150D01*
X1402Y1150D01*
X1402Y1148D01*
X1406Y1148D01*
X1406Y1146D01*
X1408Y1146D01*
X1408Y1144D01*
X1412Y1144D01*
X1412Y1142D01*
X1414Y1142D01*
X1414Y1140D01*
X1416Y1140D01*
X1416Y1136D01*
X1418Y1136D01*
X1418Y1134D01*
X1420Y1134D01*
X1420Y1130D01*
X1422Y1130D01*
X1422Y1128D01*
X1424Y1128D01*
X1424Y1122D01*
X1426Y1122D01*
X1426Y1114D01*
X1428Y1114D01*
X1428Y1100D01*
X1426Y1100D01*
X1426Y1092D01*
X1424Y1092D01*
X1424Y1086D01*
X1422Y1086D01*
X1422Y1082D01*
X1420Y1082D01*
X1420Y1080D01*
X1418Y1080D01*
X1418Y1076D01*
X1416Y1076D01*
X1416Y1074D01*
X1414Y1074D01*
X1414Y1072D01*
X1412Y1072D01*
X1412Y1070D01*
X1410Y1070D01*
X1410Y1068D01*
X1408Y1068D01*
X1408Y1066D01*
X1406Y1066D01*
X1406Y1046D01*
X1408Y1046D01*
X1408Y1044D01*
X1412Y1044D01*
X1412Y1042D01*
X1414Y1042D01*
X1414Y1040D01*
X1416Y1040D01*
X1416Y1036D01*
X1418Y1036D01*
X1418Y1034D01*
X1666Y1034D01*
X1666Y1036D01*
X1658Y1036D01*
X1658Y1038D01*
X1652Y1038D01*
X1652Y1040D01*
X1648Y1040D01*
X1648Y1042D01*
X1644Y1042D01*
X1644Y1044D01*
X1640Y1044D01*
X1640Y1046D01*
X1636Y1046D01*
X1636Y1048D01*
X1634Y1048D01*
X1634Y1050D01*
X1632Y1050D01*
X1632Y1052D01*
X1630Y1052D01*
X1630Y1054D01*
X1628Y1054D01*
X1628Y1056D01*
X1626Y1056D01*
X1626Y1058D01*
X1624Y1058D01*
X1624Y1060D01*
X1622Y1060D01*
X1622Y1062D01*
X1620Y1062D01*
X1620Y1064D01*
X1618Y1064D01*
X1618Y1068D01*
X1616Y1068D01*
X1616Y1072D01*
X1614Y1072D01*
X1614Y1076D01*
X1612Y1076D01*
X1612Y1080D01*
X1610Y1080D01*
X1610Y1086D01*
X1608Y1086D01*
X1608Y1094D01*
X1606Y1094D01*
X1606Y1120D01*
X1608Y1120D01*
X1608Y1128D01*
X1610Y1128D01*
X1610Y1134D01*
X1612Y1134D01*
X1612Y1138D01*
X1614Y1138D01*
X1614Y1142D01*
X1616Y1142D01*
X1616Y1146D01*
X1618Y1146D01*
X1618Y1148D01*
X1620Y1148D01*
X1620Y1152D01*
X1622Y1152D01*
X1622Y1154D01*
X1624Y1154D01*
X1624Y1156D01*
X1626Y1156D01*
X1626Y1158D01*
X1628Y1158D01*
X1628Y1160D01*
X1630Y1160D01*
X1630Y1180D01*
X1260Y1180D01*
G37*
D02*
G36*
X184Y1156D02*
X184Y1152D01*
X186Y1152D01*
X186Y1150D01*
X188Y1150D01*
X188Y1148D01*
X190Y1148D01*
X190Y1144D01*
X192Y1144D01*
X192Y1140D01*
X194Y1140D01*
X194Y1136D01*
X196Y1136D01*
X196Y1132D01*
X198Y1132D01*
X198Y1126D01*
X200Y1126D01*
X200Y1116D01*
X202Y1116D01*
X202Y1098D01*
X200Y1098D01*
X200Y1088D01*
X198Y1088D01*
X198Y1082D01*
X196Y1082D01*
X196Y1076D01*
X194Y1076D01*
X194Y1072D01*
X192Y1072D01*
X192Y1070D01*
X190Y1070D01*
X190Y1066D01*
X188Y1066D01*
X188Y1064D01*
X186Y1064D01*
X186Y1060D01*
X184Y1060D01*
X184Y1058D01*
X182Y1058D01*
X182Y1056D01*
X180Y1056D01*
X180Y1054D01*
X178Y1054D01*
X178Y1052D01*
X176Y1052D01*
X176Y1050D01*
X174Y1050D01*
X174Y1048D01*
X170Y1048D01*
X170Y1046D01*
X168Y1046D01*
X168Y1044D01*
X164Y1044D01*
X164Y1042D01*
X160Y1042D01*
X160Y1040D01*
X156Y1040D01*
X156Y1038D01*
X150Y1038D01*
X150Y1036D01*
X142Y1036D01*
X142Y1034D01*
X288Y1034D01*
X288Y1036D01*
X290Y1036D01*
X290Y1038D01*
X292Y1038D01*
X292Y1040D01*
X294Y1040D01*
X294Y1042D01*
X296Y1042D01*
X296Y1044D01*
X298Y1044D01*
X298Y1046D01*
X302Y1046D01*
X302Y1066D01*
X300Y1066D01*
X300Y1068D01*
X298Y1068D01*
X298Y1070D01*
X296Y1070D01*
X296Y1072D01*
X294Y1072D01*
X294Y1074D01*
X292Y1074D01*
X292Y1076D01*
X290Y1076D01*
X290Y1078D01*
X288Y1078D01*
X288Y1082D01*
X286Y1082D01*
X286Y1084D01*
X284Y1084D01*
X284Y1090D01*
X282Y1090D01*
X282Y1096D01*
X280Y1096D01*
X280Y1118D01*
X282Y1118D01*
X282Y1124D01*
X284Y1124D01*
X284Y1128D01*
X286Y1128D01*
X286Y1132D01*
X288Y1132D01*
X288Y1136D01*
X290Y1136D01*
X290Y1138D01*
X292Y1138D01*
X292Y1140D01*
X294Y1140D01*
X294Y1142D01*
X296Y1142D01*
X296Y1144D01*
X298Y1144D01*
X298Y1146D01*
X302Y1146D01*
X302Y1148D01*
X304Y1148D01*
X304Y1150D01*
X308Y1150D01*
X308Y1152D01*
X314Y1152D01*
X314Y1154D01*
X322Y1154D01*
X322Y1156D01*
X184Y1156D01*
G37*
D02*
G36*
X336Y1156D02*
X336Y1154D01*
X344Y1154D01*
X344Y1152D01*
X350Y1152D01*
X350Y1150D01*
X352Y1150D01*
X352Y1148D01*
X356Y1148D01*
X356Y1146D01*
X358Y1146D01*
X358Y1144D01*
X362Y1144D01*
X362Y1142D01*
X364Y1142D01*
X364Y1140D01*
X366Y1140D01*
X366Y1136D01*
X368Y1136D01*
X368Y1134D01*
X388Y1134D01*
X388Y1136D01*
X390Y1136D01*
X390Y1138D01*
X392Y1138D01*
X392Y1140D01*
X394Y1140D01*
X394Y1142D01*
X396Y1142D01*
X396Y1144D01*
X398Y1144D01*
X398Y1146D01*
X402Y1146D01*
X402Y1148D01*
X404Y1148D01*
X404Y1150D01*
X408Y1150D01*
X408Y1152D01*
X414Y1152D01*
X414Y1154D01*
X422Y1154D01*
X422Y1156D01*
X336Y1156D01*
G37*
D02*
G36*
X436Y1156D02*
X436Y1154D01*
X444Y1154D01*
X444Y1152D01*
X450Y1152D01*
X450Y1150D01*
X452Y1150D01*
X452Y1148D01*
X456Y1148D01*
X456Y1146D01*
X458Y1146D01*
X458Y1144D01*
X462Y1144D01*
X462Y1142D01*
X464Y1142D01*
X464Y1140D01*
X466Y1140D01*
X466Y1136D01*
X468Y1136D01*
X468Y1134D01*
X470Y1134D01*
X470Y1130D01*
X472Y1130D01*
X472Y1128D01*
X474Y1128D01*
X474Y1122D01*
X476Y1122D01*
X476Y1114D01*
X478Y1114D01*
X478Y1100D01*
X476Y1100D01*
X476Y1092D01*
X474Y1092D01*
X474Y1086D01*
X472Y1086D01*
X472Y1082D01*
X470Y1082D01*
X470Y1080D01*
X468Y1080D01*
X468Y1076D01*
X466Y1076D01*
X466Y1074D01*
X464Y1074D01*
X464Y1072D01*
X462Y1072D01*
X462Y1070D01*
X460Y1070D01*
X460Y1068D01*
X458Y1068D01*
X458Y1066D01*
X456Y1066D01*
X456Y1046D01*
X458Y1046D01*
X458Y1044D01*
X462Y1044D01*
X462Y1042D01*
X464Y1042D01*
X464Y1040D01*
X466Y1040D01*
X466Y1036D01*
X468Y1036D01*
X468Y1034D01*
X470Y1034D01*
X470Y1030D01*
X472Y1030D01*
X472Y1028D01*
X474Y1028D01*
X474Y1022D01*
X476Y1022D01*
X476Y1014D01*
X478Y1014D01*
X478Y1000D01*
X476Y1000D01*
X476Y992D01*
X474Y992D01*
X474Y986D01*
X472Y986D01*
X472Y982D01*
X470Y982D01*
X470Y980D01*
X468Y980D01*
X468Y976D01*
X466Y976D01*
X466Y974D01*
X464Y974D01*
X464Y972D01*
X462Y972D01*
X462Y970D01*
X460Y970D01*
X460Y968D01*
X458Y968D01*
X458Y966D01*
X454Y966D01*
X454Y964D01*
X450Y964D01*
X450Y962D01*
X446Y962D01*
X446Y960D01*
X440Y960D01*
X440Y958D01*
X416Y958D01*
X416Y956D01*
X414Y956D01*
X414Y954D01*
X412Y954D01*
X412Y950D01*
X410Y950D01*
X410Y948D01*
X408Y948D01*
X408Y944D01*
X406Y944D01*
X406Y940D01*
X404Y940D01*
X404Y938D01*
X402Y938D01*
X402Y934D01*
X400Y934D01*
X400Y930D01*
X398Y930D01*
X398Y928D01*
X396Y928D01*
X396Y924D01*
X394Y924D01*
X394Y920D01*
X392Y920D01*
X392Y918D01*
X390Y918D01*
X390Y914D01*
X388Y914D01*
X388Y910D01*
X386Y910D01*
X386Y908D01*
X384Y908D01*
X384Y904D01*
X382Y904D01*
X382Y902D01*
X636Y902D01*
X636Y900D01*
X644Y900D01*
X644Y898D01*
X648Y898D01*
X648Y896D01*
X652Y896D01*
X652Y894D01*
X654Y894D01*
X654Y892D01*
X658Y892D01*
X658Y890D01*
X660Y890D01*
X660Y888D01*
X662Y888D01*
X662Y886D01*
X664Y886D01*
X664Y882D01*
X666Y882D01*
X666Y880D01*
X668Y880D01*
X668Y876D01*
X688Y876D01*
X688Y878D01*
X690Y878D01*
X690Y882D01*
X692Y882D01*
X692Y884D01*
X694Y884D01*
X694Y886D01*
X696Y886D01*
X696Y888D01*
X698Y888D01*
X698Y890D01*
X700Y890D01*
X700Y892D01*
X702Y892D01*
X702Y894D01*
X706Y894D01*
X706Y964D01*
X704Y964D01*
X704Y966D01*
X700Y966D01*
X700Y968D01*
X698Y968D01*
X698Y970D01*
X696Y970D01*
X696Y972D01*
X694Y972D01*
X694Y974D01*
X692Y974D01*
X692Y976D01*
X690Y976D01*
X690Y978D01*
X688Y978D01*
X688Y982D01*
X686Y982D01*
X686Y984D01*
X684Y984D01*
X684Y990D01*
X682Y990D01*
X682Y996D01*
X680Y996D01*
X680Y1018D01*
X682Y1018D01*
X682Y1024D01*
X684Y1024D01*
X684Y1028D01*
X686Y1028D01*
X686Y1032D01*
X688Y1032D01*
X688Y1036D01*
X690Y1036D01*
X690Y1038D01*
X692Y1038D01*
X692Y1040D01*
X694Y1040D01*
X694Y1042D01*
X696Y1042D01*
X696Y1044D01*
X698Y1044D01*
X698Y1046D01*
X702Y1046D01*
X702Y1066D01*
X700Y1066D01*
X700Y1068D01*
X698Y1068D01*
X698Y1070D01*
X696Y1070D01*
X696Y1072D01*
X694Y1072D01*
X694Y1074D01*
X692Y1074D01*
X692Y1076D01*
X690Y1076D01*
X690Y1078D01*
X688Y1078D01*
X688Y1082D01*
X686Y1082D01*
X686Y1084D01*
X684Y1084D01*
X684Y1090D01*
X682Y1090D01*
X682Y1096D01*
X680Y1096D01*
X680Y1118D01*
X682Y1118D01*
X682Y1124D01*
X684Y1124D01*
X684Y1128D01*
X686Y1128D01*
X686Y1132D01*
X688Y1132D01*
X688Y1136D01*
X690Y1136D01*
X690Y1138D01*
X692Y1138D01*
X692Y1140D01*
X694Y1140D01*
X694Y1142D01*
X696Y1142D01*
X696Y1144D01*
X698Y1144D01*
X698Y1146D01*
X702Y1146D01*
X702Y1148D01*
X704Y1148D01*
X704Y1150D01*
X708Y1150D01*
X708Y1152D01*
X714Y1152D01*
X714Y1154D01*
X722Y1154D01*
X722Y1156D01*
X436Y1156D01*
G37*
D02*
G36*
X736Y1156D02*
X736Y1154D01*
X744Y1154D01*
X744Y1152D01*
X750Y1152D01*
X750Y1150D01*
X752Y1150D01*
X752Y1148D01*
X756Y1148D01*
X756Y1146D01*
X758Y1146D01*
X758Y1144D01*
X762Y1144D01*
X762Y1142D01*
X764Y1142D01*
X764Y1140D01*
X766Y1140D01*
X766Y1136D01*
X768Y1136D01*
X768Y1134D01*
X788Y1134D01*
X788Y1136D01*
X790Y1136D01*
X790Y1138D01*
X792Y1138D01*
X792Y1140D01*
X794Y1140D01*
X794Y1142D01*
X796Y1142D01*
X796Y1144D01*
X798Y1144D01*
X798Y1146D01*
X802Y1146D01*
X802Y1148D01*
X804Y1148D01*
X804Y1150D01*
X808Y1150D01*
X808Y1152D01*
X814Y1152D01*
X814Y1154D01*
X822Y1154D01*
X822Y1156D01*
X736Y1156D01*
G37*
D02*
G36*
X1286Y1156D02*
X1286Y1154D01*
X1294Y1154D01*
X1294Y1152D01*
X1300Y1152D01*
X1300Y1150D01*
X1302Y1150D01*
X1302Y1148D01*
X1306Y1148D01*
X1306Y1146D01*
X1308Y1146D01*
X1308Y1144D01*
X1312Y1144D01*
X1312Y1142D01*
X1314Y1142D01*
X1314Y1140D01*
X1316Y1140D01*
X1316Y1136D01*
X1318Y1136D01*
X1318Y1134D01*
X1338Y1134D01*
X1338Y1136D01*
X1340Y1136D01*
X1340Y1138D01*
X1342Y1138D01*
X1342Y1140D01*
X1344Y1140D01*
X1344Y1142D01*
X1346Y1142D01*
X1346Y1144D01*
X1348Y1144D01*
X1348Y1146D01*
X1352Y1146D01*
X1352Y1148D01*
X1354Y1148D01*
X1354Y1150D01*
X1358Y1150D01*
X1358Y1152D01*
X1364Y1152D01*
X1364Y1154D01*
X1372Y1154D01*
X1372Y1156D01*
X1286Y1156D01*
G37*
D02*
G36*
X1750Y1098D02*
X1750Y1088D01*
X1748Y1088D01*
X1748Y1082D01*
X1746Y1082D01*
X1746Y1076D01*
X1744Y1076D01*
X1744Y1072D01*
X1742Y1072D01*
X1742Y1070D01*
X1740Y1070D01*
X1740Y1066D01*
X1738Y1066D01*
X1738Y1064D01*
X1736Y1064D01*
X1736Y1060D01*
X1734Y1060D01*
X1734Y1058D01*
X1732Y1058D01*
X1732Y1056D01*
X1730Y1056D01*
X1730Y1054D01*
X1728Y1054D01*
X1728Y1052D01*
X1726Y1052D01*
X1726Y1050D01*
X1724Y1050D01*
X1724Y1048D01*
X1720Y1048D01*
X1720Y1046D01*
X1718Y1046D01*
X1718Y1044D01*
X1714Y1044D01*
X1714Y1042D01*
X1710Y1042D01*
X1710Y1040D01*
X1706Y1040D01*
X1706Y1038D01*
X1700Y1038D01*
X1700Y1036D01*
X1692Y1036D01*
X1692Y1034D01*
X1770Y1034D01*
X1770Y1098D01*
X1750Y1098D01*
G37*
D02*
G36*
X40Y1086D02*
X40Y1034D01*
X116Y1034D01*
X116Y1036D01*
X108Y1036D01*
X108Y1038D01*
X102Y1038D01*
X102Y1040D01*
X98Y1040D01*
X98Y1042D01*
X94Y1042D01*
X94Y1044D01*
X90Y1044D01*
X90Y1046D01*
X86Y1046D01*
X86Y1048D01*
X84Y1048D01*
X84Y1050D01*
X82Y1050D01*
X82Y1052D01*
X80Y1052D01*
X80Y1054D01*
X78Y1054D01*
X78Y1056D01*
X76Y1056D01*
X76Y1058D01*
X74Y1058D01*
X74Y1060D01*
X72Y1060D01*
X72Y1062D01*
X70Y1062D01*
X70Y1064D01*
X68Y1064D01*
X68Y1068D01*
X66Y1068D01*
X66Y1072D01*
X64Y1072D01*
X64Y1076D01*
X62Y1076D01*
X62Y1080D01*
X60Y1080D01*
X60Y1086D01*
X40Y1086D01*
G37*
D02*
G36*
X40Y1034D02*
X40Y1032D01*
X288Y1032D01*
X288Y1034D01*
X40Y1034D01*
G37*
D02*
G36*
X40Y1034D02*
X40Y1032D01*
X288Y1032D01*
X288Y1034D01*
X40Y1034D01*
G37*
D02*
G36*
X1420Y1034D02*
X1420Y1032D01*
X1770Y1032D01*
X1770Y1034D01*
X1420Y1034D01*
G37*
D02*
G36*
X1420Y1034D02*
X1420Y1032D01*
X1770Y1032D01*
X1770Y1034D01*
X1420Y1034D01*
G37*
D02*
G36*
X40Y1032D02*
X40Y812D01*
X218Y812D01*
X218Y814D01*
X212Y814D01*
X212Y816D01*
X208Y816D01*
X208Y818D01*
X204Y818D01*
X204Y820D01*
X202Y820D01*
X202Y822D01*
X200Y822D01*
X200Y824D01*
X196Y824D01*
X196Y828D01*
X194Y828D01*
X194Y830D01*
X192Y830D01*
X192Y832D01*
X190Y832D01*
X190Y836D01*
X188Y836D01*
X188Y840D01*
X186Y840D01*
X186Y846D01*
X184Y846D01*
X184Y866D01*
X186Y866D01*
X186Y874D01*
X188Y874D01*
X188Y878D01*
X190Y878D01*
X190Y882D01*
X192Y882D01*
X192Y884D01*
X194Y884D01*
X194Y886D01*
X196Y886D01*
X196Y888D01*
X198Y888D01*
X198Y890D01*
X200Y890D01*
X200Y892D01*
X202Y892D01*
X202Y894D01*
X206Y894D01*
X206Y896D01*
X210Y896D01*
X210Y898D01*
X214Y898D01*
X214Y900D01*
X222Y900D01*
X222Y902D01*
X234Y902D01*
X234Y906D01*
X236Y906D01*
X236Y908D01*
X238Y908D01*
X238Y912D01*
X240Y912D01*
X240Y914D01*
X242Y914D01*
X242Y918D01*
X244Y918D01*
X244Y920D01*
X246Y920D01*
X246Y924D01*
X248Y924D01*
X248Y926D01*
X250Y926D01*
X250Y930D01*
X252Y930D01*
X252Y932D01*
X254Y932D01*
X254Y936D01*
X256Y936D01*
X256Y938D01*
X258Y938D01*
X258Y942D01*
X260Y942D01*
X260Y944D01*
X262Y944D01*
X262Y948D01*
X264Y948D01*
X264Y950D01*
X266Y950D01*
X266Y954D01*
X268Y954D01*
X268Y956D01*
X270Y956D01*
X270Y960D01*
X272Y960D01*
X272Y962D01*
X274Y962D01*
X274Y966D01*
X276Y966D01*
X276Y968D01*
X278Y968D01*
X278Y972D01*
X280Y972D01*
X280Y974D01*
X282Y974D01*
X282Y996D01*
X280Y996D01*
X280Y1018D01*
X282Y1018D01*
X282Y1024D01*
X284Y1024D01*
X284Y1028D01*
X286Y1028D01*
X286Y1032D01*
X40Y1032D01*
G37*
D02*
G36*
X1420Y1032D02*
X1420Y1030D01*
X1422Y1030D01*
X1422Y1028D01*
X1424Y1028D01*
X1424Y1022D01*
X1426Y1022D01*
X1426Y1014D01*
X1428Y1014D01*
X1428Y1000D01*
X1426Y1000D01*
X1426Y992D01*
X1424Y992D01*
X1424Y986D01*
X1422Y986D01*
X1422Y982D01*
X1420Y982D01*
X1420Y980D01*
X1418Y980D01*
X1418Y976D01*
X1416Y976D01*
X1416Y974D01*
X1414Y974D01*
X1414Y972D01*
X1412Y972D01*
X1412Y970D01*
X1410Y970D01*
X1410Y968D01*
X1408Y968D01*
X1408Y966D01*
X1404Y966D01*
X1404Y964D01*
X1400Y964D01*
X1400Y962D01*
X1396Y962D01*
X1396Y960D01*
X1390Y960D01*
X1390Y958D01*
X1770Y958D01*
X1770Y1032D01*
X1420Y1032D01*
G37*
D02*
G36*
X1318Y980D02*
X1318Y958D01*
X1368Y958D01*
X1368Y960D01*
X1362Y960D01*
X1362Y962D01*
X1356Y962D01*
X1356Y964D01*
X1354Y964D01*
X1354Y966D01*
X1350Y966D01*
X1350Y968D01*
X1348Y968D01*
X1348Y970D01*
X1346Y970D01*
X1346Y972D01*
X1344Y972D01*
X1344Y974D01*
X1342Y974D01*
X1342Y976D01*
X1340Y976D01*
X1340Y978D01*
X1338Y978D01*
X1338Y980D01*
X1318Y980D01*
G37*
D02*
G36*
X1318Y958D02*
X1318Y956D01*
X1770Y956D01*
X1770Y958D01*
X1318Y958D01*
G37*
D02*
G36*
X1318Y958D02*
X1318Y956D01*
X1770Y956D01*
X1770Y958D01*
X1318Y958D01*
G37*
D02*
G36*
X1320Y956D02*
X1320Y950D01*
X1322Y950D01*
X1322Y944D01*
X1324Y944D01*
X1324Y938D01*
X1326Y938D01*
X1326Y932D01*
X1328Y932D01*
X1328Y926D01*
X1330Y926D01*
X1330Y920D01*
X1332Y920D01*
X1332Y914D01*
X1334Y914D01*
X1334Y908D01*
X1336Y908D01*
X1336Y902D01*
X1674Y902D01*
X1674Y812D01*
X1770Y812D01*
X1770Y956D01*
X1320Y956D01*
G37*
D02*
G36*
X382Y902D02*
X382Y900D01*
X380Y900D01*
X380Y898D01*
X378Y898D01*
X378Y894D01*
X376Y894D01*
X376Y890D01*
X374Y890D01*
X374Y888D01*
X372Y888D01*
X372Y882D01*
X392Y882D01*
X392Y884D01*
X394Y884D01*
X394Y886D01*
X396Y886D01*
X396Y888D01*
X398Y888D01*
X398Y890D01*
X400Y890D01*
X400Y892D01*
X402Y892D01*
X402Y894D01*
X406Y894D01*
X406Y896D01*
X410Y896D01*
X410Y898D01*
X414Y898D01*
X414Y900D01*
X422Y900D01*
X422Y902D01*
X382Y902D01*
G37*
D02*
G36*
X436Y902D02*
X436Y900D01*
X444Y900D01*
X444Y898D01*
X448Y898D01*
X448Y896D01*
X452Y896D01*
X452Y894D01*
X454Y894D01*
X454Y892D01*
X458Y892D01*
X458Y890D01*
X460Y890D01*
X460Y888D01*
X462Y888D01*
X462Y886D01*
X464Y886D01*
X464Y882D01*
X466Y882D01*
X466Y880D01*
X468Y880D01*
X468Y876D01*
X488Y876D01*
X488Y878D01*
X490Y878D01*
X490Y882D01*
X492Y882D01*
X492Y884D01*
X494Y884D01*
X494Y886D01*
X496Y886D01*
X496Y888D01*
X498Y888D01*
X498Y890D01*
X500Y890D01*
X500Y892D01*
X502Y892D01*
X502Y894D01*
X506Y894D01*
X506Y896D01*
X510Y896D01*
X510Y898D01*
X514Y898D01*
X514Y900D01*
X522Y900D01*
X522Y902D01*
X436Y902D01*
G37*
D02*
G36*
X536Y902D02*
X536Y900D01*
X544Y900D01*
X544Y898D01*
X548Y898D01*
X548Y896D01*
X552Y896D01*
X552Y894D01*
X554Y894D01*
X554Y892D01*
X558Y892D01*
X558Y890D01*
X560Y890D01*
X560Y888D01*
X562Y888D01*
X562Y886D01*
X564Y886D01*
X564Y882D01*
X566Y882D01*
X566Y880D01*
X568Y880D01*
X568Y876D01*
X588Y876D01*
X588Y878D01*
X590Y878D01*
X590Y882D01*
X592Y882D01*
X592Y884D01*
X594Y884D01*
X594Y886D01*
X596Y886D01*
X596Y888D01*
X598Y888D01*
X598Y890D01*
X600Y890D01*
X600Y892D01*
X602Y892D01*
X602Y894D01*
X606Y894D01*
X606Y896D01*
X610Y896D01*
X610Y898D01*
X614Y898D01*
X614Y900D01*
X622Y900D01*
X622Y902D01*
X536Y902D01*
G37*
D02*
G36*
X1338Y902D02*
X1338Y900D01*
X1344Y900D01*
X1344Y898D01*
X1348Y898D01*
X1348Y896D01*
X1352Y896D01*
X1352Y894D01*
X1354Y894D01*
X1354Y892D01*
X1358Y892D01*
X1358Y890D01*
X1360Y890D01*
X1360Y888D01*
X1362Y888D01*
X1362Y886D01*
X1364Y886D01*
X1364Y882D01*
X1366Y882D01*
X1366Y880D01*
X1368Y880D01*
X1368Y876D01*
X1388Y876D01*
X1388Y878D01*
X1390Y878D01*
X1390Y882D01*
X1392Y882D01*
X1392Y884D01*
X1394Y884D01*
X1394Y886D01*
X1396Y886D01*
X1396Y888D01*
X1398Y888D01*
X1398Y890D01*
X1400Y890D01*
X1400Y892D01*
X1402Y892D01*
X1402Y894D01*
X1406Y894D01*
X1406Y896D01*
X1410Y896D01*
X1410Y898D01*
X1414Y898D01*
X1414Y900D01*
X1422Y900D01*
X1422Y902D01*
X1338Y902D01*
G37*
D02*
G36*
X1436Y902D02*
X1436Y900D01*
X1444Y900D01*
X1444Y898D01*
X1448Y898D01*
X1448Y896D01*
X1452Y896D01*
X1452Y894D01*
X1454Y894D01*
X1454Y892D01*
X1458Y892D01*
X1458Y890D01*
X1460Y890D01*
X1460Y888D01*
X1462Y888D01*
X1462Y886D01*
X1464Y886D01*
X1464Y882D01*
X1466Y882D01*
X1466Y880D01*
X1468Y880D01*
X1468Y876D01*
X1488Y876D01*
X1488Y878D01*
X1490Y878D01*
X1490Y882D01*
X1492Y882D01*
X1492Y884D01*
X1494Y884D01*
X1494Y886D01*
X1496Y886D01*
X1496Y888D01*
X1498Y888D01*
X1498Y890D01*
X1500Y890D01*
X1500Y892D01*
X1502Y892D01*
X1502Y894D01*
X1506Y894D01*
X1506Y896D01*
X1510Y896D01*
X1510Y898D01*
X1514Y898D01*
X1514Y900D01*
X1522Y900D01*
X1522Y902D01*
X1436Y902D01*
G37*
D02*
G36*
X1536Y902D02*
X1536Y900D01*
X1544Y900D01*
X1544Y898D01*
X1548Y898D01*
X1548Y896D01*
X1552Y896D01*
X1552Y894D01*
X1554Y894D01*
X1554Y892D01*
X1558Y892D01*
X1558Y890D01*
X1560Y890D01*
X1560Y888D01*
X1562Y888D01*
X1562Y886D01*
X1564Y886D01*
X1564Y882D01*
X1584Y882D01*
X1584Y902D01*
X1536Y902D01*
G37*
D02*
G36*
X268Y838D02*
X268Y834D01*
X266Y834D01*
X266Y830D01*
X264Y830D01*
X264Y828D01*
X262Y828D01*
X262Y826D01*
X260Y826D01*
X260Y824D01*
X258Y824D01*
X258Y822D01*
X256Y822D01*
X256Y820D01*
X254Y820D01*
X254Y818D01*
X250Y818D01*
X250Y816D01*
X246Y816D01*
X246Y814D01*
X238Y814D01*
X238Y812D01*
X318Y812D01*
X318Y814D01*
X312Y814D01*
X312Y816D01*
X308Y816D01*
X308Y818D01*
X304Y818D01*
X304Y820D01*
X302Y820D01*
X302Y822D01*
X300Y822D01*
X300Y824D01*
X296Y824D01*
X296Y828D01*
X294Y828D01*
X294Y830D01*
X292Y830D01*
X292Y832D01*
X290Y832D01*
X290Y836D01*
X288Y836D01*
X288Y838D01*
X268Y838D01*
G37*
D02*
G36*
X368Y838D02*
X368Y834D01*
X366Y834D01*
X366Y830D01*
X364Y830D01*
X364Y828D01*
X362Y828D01*
X362Y826D01*
X360Y826D01*
X360Y824D01*
X358Y824D01*
X358Y822D01*
X356Y822D01*
X356Y820D01*
X354Y820D01*
X354Y818D01*
X350Y818D01*
X350Y816D01*
X346Y816D01*
X346Y814D01*
X338Y814D01*
X338Y812D01*
X418Y812D01*
X418Y814D01*
X412Y814D01*
X412Y816D01*
X408Y816D01*
X408Y818D01*
X404Y818D01*
X404Y820D01*
X402Y820D01*
X402Y822D01*
X400Y822D01*
X400Y824D01*
X396Y824D01*
X396Y828D01*
X394Y828D01*
X394Y830D01*
X392Y830D01*
X392Y832D01*
X390Y832D01*
X390Y836D01*
X388Y836D01*
X388Y838D01*
X368Y838D01*
G37*
D02*
G36*
X468Y838D02*
X468Y834D01*
X466Y834D01*
X466Y830D01*
X464Y830D01*
X464Y828D01*
X462Y828D01*
X462Y826D01*
X460Y826D01*
X460Y824D01*
X458Y824D01*
X458Y822D01*
X456Y822D01*
X456Y820D01*
X454Y820D01*
X454Y818D01*
X450Y818D01*
X450Y816D01*
X446Y816D01*
X446Y814D01*
X438Y814D01*
X438Y812D01*
X518Y812D01*
X518Y814D01*
X512Y814D01*
X512Y816D01*
X508Y816D01*
X508Y818D01*
X504Y818D01*
X504Y820D01*
X502Y820D01*
X502Y822D01*
X500Y822D01*
X500Y824D01*
X496Y824D01*
X496Y828D01*
X494Y828D01*
X494Y830D01*
X492Y830D01*
X492Y832D01*
X490Y832D01*
X490Y836D01*
X488Y836D01*
X488Y838D01*
X468Y838D01*
G37*
D02*
G36*
X568Y838D02*
X568Y834D01*
X566Y834D01*
X566Y830D01*
X564Y830D01*
X564Y828D01*
X562Y828D01*
X562Y826D01*
X560Y826D01*
X560Y824D01*
X558Y824D01*
X558Y822D01*
X556Y822D01*
X556Y820D01*
X554Y820D01*
X554Y818D01*
X550Y818D01*
X550Y816D01*
X546Y816D01*
X546Y814D01*
X538Y814D01*
X538Y812D01*
X618Y812D01*
X618Y814D01*
X612Y814D01*
X612Y816D01*
X608Y816D01*
X608Y818D01*
X604Y818D01*
X604Y820D01*
X602Y820D01*
X602Y822D01*
X600Y822D01*
X600Y824D01*
X596Y824D01*
X596Y828D01*
X594Y828D01*
X594Y830D01*
X592Y830D01*
X592Y832D01*
X590Y832D01*
X590Y836D01*
X588Y836D01*
X588Y838D01*
X568Y838D01*
G37*
D02*
G36*
X668Y838D02*
X668Y834D01*
X666Y834D01*
X666Y830D01*
X664Y830D01*
X664Y828D01*
X662Y828D01*
X662Y826D01*
X660Y826D01*
X660Y824D01*
X658Y824D01*
X658Y822D01*
X656Y822D01*
X656Y820D01*
X654Y820D01*
X654Y818D01*
X650Y818D01*
X650Y816D01*
X646Y816D01*
X646Y814D01*
X638Y814D01*
X638Y812D01*
X718Y812D01*
X718Y814D01*
X712Y814D01*
X712Y816D01*
X708Y816D01*
X708Y818D01*
X704Y818D01*
X704Y820D01*
X702Y820D01*
X702Y822D01*
X700Y822D01*
X700Y824D01*
X696Y824D01*
X696Y828D01*
X694Y828D01*
X694Y830D01*
X692Y830D01*
X692Y832D01*
X690Y832D01*
X690Y836D01*
X688Y836D01*
X688Y838D01*
X668Y838D01*
G37*
D02*
G36*
X768Y838D02*
X768Y834D01*
X766Y834D01*
X766Y830D01*
X764Y830D01*
X764Y828D01*
X762Y828D01*
X762Y826D01*
X760Y826D01*
X760Y824D01*
X758Y824D01*
X758Y822D01*
X756Y822D01*
X756Y820D01*
X754Y820D01*
X754Y818D01*
X750Y818D01*
X750Y816D01*
X746Y816D01*
X746Y814D01*
X738Y814D01*
X738Y812D01*
X818Y812D01*
X818Y814D01*
X812Y814D01*
X812Y816D01*
X808Y816D01*
X808Y818D01*
X804Y818D01*
X804Y820D01*
X802Y820D01*
X802Y822D01*
X800Y822D01*
X800Y824D01*
X796Y824D01*
X796Y828D01*
X794Y828D01*
X794Y830D01*
X792Y830D01*
X792Y832D01*
X790Y832D01*
X790Y836D01*
X788Y836D01*
X788Y838D01*
X768Y838D01*
G37*
D02*
G36*
X868Y838D02*
X868Y834D01*
X866Y834D01*
X866Y830D01*
X864Y830D01*
X864Y828D01*
X862Y828D01*
X862Y826D01*
X860Y826D01*
X860Y824D01*
X858Y824D01*
X858Y822D01*
X856Y822D01*
X856Y820D01*
X854Y820D01*
X854Y818D01*
X850Y818D01*
X850Y816D01*
X846Y816D01*
X846Y814D01*
X838Y814D01*
X838Y812D01*
X906Y812D01*
X906Y818D01*
X904Y818D01*
X904Y820D01*
X902Y820D01*
X902Y822D01*
X900Y822D01*
X900Y824D01*
X896Y824D01*
X896Y828D01*
X894Y828D01*
X894Y830D01*
X892Y830D01*
X892Y832D01*
X890Y832D01*
X890Y836D01*
X888Y836D01*
X888Y838D01*
X868Y838D01*
G37*
D02*
G36*
X1268Y838D02*
X1268Y834D01*
X1266Y834D01*
X1266Y830D01*
X1264Y830D01*
X1264Y828D01*
X1262Y828D01*
X1262Y826D01*
X1260Y826D01*
X1260Y824D01*
X1258Y824D01*
X1258Y822D01*
X1256Y822D01*
X1256Y820D01*
X1254Y820D01*
X1254Y818D01*
X1250Y818D01*
X1250Y812D01*
X1318Y812D01*
X1318Y814D01*
X1312Y814D01*
X1312Y816D01*
X1308Y816D01*
X1308Y818D01*
X1304Y818D01*
X1304Y820D01*
X1302Y820D01*
X1302Y822D01*
X1300Y822D01*
X1300Y824D01*
X1296Y824D01*
X1296Y828D01*
X1294Y828D01*
X1294Y830D01*
X1292Y830D01*
X1292Y832D01*
X1290Y832D01*
X1290Y836D01*
X1288Y836D01*
X1288Y838D01*
X1268Y838D01*
G37*
D02*
G36*
X1368Y838D02*
X1368Y834D01*
X1366Y834D01*
X1366Y830D01*
X1364Y830D01*
X1364Y828D01*
X1362Y828D01*
X1362Y826D01*
X1360Y826D01*
X1360Y824D01*
X1358Y824D01*
X1358Y822D01*
X1356Y822D01*
X1356Y820D01*
X1354Y820D01*
X1354Y818D01*
X1350Y818D01*
X1350Y816D01*
X1346Y816D01*
X1346Y814D01*
X1338Y814D01*
X1338Y812D01*
X1418Y812D01*
X1418Y814D01*
X1412Y814D01*
X1412Y816D01*
X1408Y816D01*
X1408Y818D01*
X1404Y818D01*
X1404Y820D01*
X1402Y820D01*
X1402Y822D01*
X1400Y822D01*
X1400Y824D01*
X1396Y824D01*
X1396Y828D01*
X1394Y828D01*
X1394Y830D01*
X1392Y830D01*
X1392Y832D01*
X1390Y832D01*
X1390Y836D01*
X1388Y836D01*
X1388Y838D01*
X1368Y838D01*
G37*
D02*
G36*
X1468Y838D02*
X1468Y834D01*
X1466Y834D01*
X1466Y830D01*
X1464Y830D01*
X1464Y828D01*
X1462Y828D01*
X1462Y826D01*
X1460Y826D01*
X1460Y824D01*
X1458Y824D01*
X1458Y822D01*
X1456Y822D01*
X1456Y820D01*
X1454Y820D01*
X1454Y818D01*
X1450Y818D01*
X1450Y816D01*
X1446Y816D01*
X1446Y814D01*
X1438Y814D01*
X1438Y812D01*
X1518Y812D01*
X1518Y814D01*
X1512Y814D01*
X1512Y816D01*
X1508Y816D01*
X1508Y818D01*
X1504Y818D01*
X1504Y820D01*
X1502Y820D01*
X1502Y822D01*
X1500Y822D01*
X1500Y824D01*
X1496Y824D01*
X1496Y828D01*
X1494Y828D01*
X1494Y830D01*
X1492Y830D01*
X1492Y832D01*
X1490Y832D01*
X1490Y836D01*
X1488Y836D01*
X1488Y838D01*
X1468Y838D01*
G37*
D02*
G36*
X1564Y830D02*
X1564Y828D01*
X1562Y828D01*
X1562Y826D01*
X1560Y826D01*
X1560Y824D01*
X1558Y824D01*
X1558Y822D01*
X1556Y822D01*
X1556Y820D01*
X1554Y820D01*
X1554Y818D01*
X1550Y818D01*
X1550Y816D01*
X1546Y816D01*
X1546Y814D01*
X1538Y814D01*
X1538Y812D01*
X1584Y812D01*
X1584Y830D01*
X1564Y830D01*
G37*
D02*
G36*
X40Y812D02*
X40Y810D01*
X906Y810D01*
X906Y812D01*
X40Y812D01*
G37*
D02*
G36*
X40Y812D02*
X40Y810D01*
X906Y810D01*
X906Y812D01*
X40Y812D01*
G37*
D02*
G36*
X40Y812D02*
X40Y810D01*
X906Y810D01*
X906Y812D01*
X40Y812D01*
G37*
D02*
G36*
X40Y812D02*
X40Y810D01*
X906Y810D01*
X906Y812D01*
X40Y812D01*
G37*
D02*
G36*
X40Y812D02*
X40Y810D01*
X906Y810D01*
X906Y812D01*
X40Y812D01*
G37*
D02*
G36*
X40Y812D02*
X40Y810D01*
X906Y810D01*
X906Y812D01*
X40Y812D01*
G37*
D02*
G36*
X40Y812D02*
X40Y810D01*
X906Y810D01*
X906Y812D01*
X40Y812D01*
G37*
D02*
G36*
X40Y812D02*
X40Y810D01*
X906Y810D01*
X906Y812D01*
X40Y812D01*
G37*
D02*
G36*
X1250Y812D02*
X1250Y810D01*
X1770Y810D01*
X1770Y812D01*
X1250Y812D01*
G37*
D02*
G36*
X1250Y812D02*
X1250Y810D01*
X1770Y810D01*
X1770Y812D01*
X1250Y812D01*
G37*
D02*
G36*
X1250Y812D02*
X1250Y810D01*
X1770Y810D01*
X1770Y812D01*
X1250Y812D01*
G37*
D02*
G36*
X1250Y812D02*
X1250Y810D01*
X1770Y810D01*
X1770Y812D01*
X1250Y812D01*
G37*
D02*
G36*
X1250Y812D02*
X1250Y810D01*
X1770Y810D01*
X1770Y812D01*
X1250Y812D01*
G37*
D02*
G36*
X40Y810D02*
X40Y710D01*
X916Y710D01*
X916Y712D01*
X910Y712D01*
X910Y714D01*
X906Y714D01*
X906Y716D01*
X902Y716D01*
X902Y718D01*
X900Y718D01*
X900Y720D01*
X898Y720D01*
X898Y722D01*
X896Y722D01*
X896Y724D01*
X894Y724D01*
X894Y726D01*
X892Y726D01*
X892Y728D01*
X890Y728D01*
X890Y730D01*
X888Y730D01*
X888Y734D01*
X886Y734D01*
X886Y738D01*
X884Y738D01*
X884Y744D01*
X882Y744D01*
X882Y768D01*
X884Y768D01*
X884Y776D01*
X886Y776D01*
X886Y778D01*
X888Y778D01*
X888Y782D01*
X890Y782D01*
X890Y786D01*
X892Y786D01*
X892Y788D01*
X894Y788D01*
X894Y790D01*
X896Y790D01*
X896Y792D01*
X898Y792D01*
X898Y794D01*
X900Y794D01*
X900Y796D01*
X904Y796D01*
X904Y798D01*
X906Y798D01*
X906Y810D01*
X40Y810D01*
G37*
D02*
G36*
X1250Y810D02*
X1250Y798D01*
X1254Y798D01*
X1254Y796D01*
X1256Y796D01*
X1256Y794D01*
X1258Y794D01*
X1258Y792D01*
X1262Y792D01*
X1262Y790D01*
X1264Y790D01*
X1264Y786D01*
X1266Y786D01*
X1266Y784D01*
X1268Y784D01*
X1268Y782D01*
X1270Y782D01*
X1270Y778D01*
X1272Y778D01*
X1272Y774D01*
X1274Y774D01*
X1274Y766D01*
X1276Y766D01*
X1276Y746D01*
X1274Y746D01*
X1274Y740D01*
X1272Y740D01*
X1272Y736D01*
X1270Y736D01*
X1270Y732D01*
X1268Y732D01*
X1268Y728D01*
X1266Y728D01*
X1266Y726D01*
X1264Y726D01*
X1264Y724D01*
X1262Y724D01*
X1262Y722D01*
X1260Y722D01*
X1260Y720D01*
X1258Y720D01*
X1258Y718D01*
X1254Y718D01*
X1254Y716D01*
X1250Y716D01*
X1250Y714D01*
X1248Y714D01*
X1248Y712D01*
X1240Y712D01*
X1240Y710D01*
X1770Y710D01*
X1770Y810D01*
X1250Y810D01*
G37*
D02*
G36*
X968Y732D02*
X968Y728D01*
X966Y728D01*
X966Y726D01*
X964Y726D01*
X964Y724D01*
X962Y724D01*
X962Y722D01*
X960Y722D01*
X960Y720D01*
X958Y720D01*
X958Y718D01*
X954Y718D01*
X954Y716D01*
X950Y716D01*
X950Y714D01*
X948Y714D01*
X948Y712D01*
X940Y712D01*
X940Y710D01*
X1016Y710D01*
X1016Y712D01*
X1010Y712D01*
X1010Y714D01*
X1006Y714D01*
X1006Y716D01*
X1002Y716D01*
X1002Y718D01*
X1000Y718D01*
X1000Y720D01*
X998Y720D01*
X998Y722D01*
X996Y722D01*
X996Y724D01*
X994Y724D01*
X994Y726D01*
X992Y726D01*
X992Y728D01*
X990Y728D01*
X990Y730D01*
X988Y730D01*
X988Y732D01*
X968Y732D01*
G37*
D02*
G36*
X1068Y732D02*
X1068Y728D01*
X1066Y728D01*
X1066Y726D01*
X1064Y726D01*
X1064Y724D01*
X1062Y724D01*
X1062Y722D01*
X1060Y722D01*
X1060Y720D01*
X1058Y720D01*
X1058Y718D01*
X1054Y718D01*
X1054Y716D01*
X1050Y716D01*
X1050Y714D01*
X1048Y714D01*
X1048Y712D01*
X1040Y712D01*
X1040Y710D01*
X1116Y710D01*
X1116Y712D01*
X1110Y712D01*
X1110Y714D01*
X1106Y714D01*
X1106Y716D01*
X1102Y716D01*
X1102Y718D01*
X1100Y718D01*
X1100Y720D01*
X1098Y720D01*
X1098Y722D01*
X1096Y722D01*
X1096Y724D01*
X1094Y724D01*
X1094Y726D01*
X1092Y726D01*
X1092Y728D01*
X1090Y728D01*
X1090Y730D01*
X1088Y730D01*
X1088Y732D01*
X1068Y732D01*
G37*
D02*
G36*
X1168Y732D02*
X1168Y728D01*
X1166Y728D01*
X1166Y726D01*
X1164Y726D01*
X1164Y724D01*
X1162Y724D01*
X1162Y722D01*
X1160Y722D01*
X1160Y720D01*
X1158Y720D01*
X1158Y718D01*
X1154Y718D01*
X1154Y716D01*
X1150Y716D01*
X1150Y714D01*
X1148Y714D01*
X1148Y712D01*
X1140Y712D01*
X1140Y710D01*
X1216Y710D01*
X1216Y712D01*
X1210Y712D01*
X1210Y714D01*
X1206Y714D01*
X1206Y716D01*
X1202Y716D01*
X1202Y718D01*
X1200Y718D01*
X1200Y720D01*
X1198Y720D01*
X1198Y722D01*
X1196Y722D01*
X1196Y724D01*
X1194Y724D01*
X1194Y726D01*
X1192Y726D01*
X1192Y728D01*
X1190Y728D01*
X1190Y730D01*
X1188Y730D01*
X1188Y732D01*
X1168Y732D01*
G37*
D02*
G36*
X40Y710D02*
X40Y708D01*
X1770Y708D01*
X1770Y710D01*
X40Y710D01*
G37*
D02*
G36*
X40Y710D02*
X40Y708D01*
X1770Y708D01*
X1770Y710D01*
X40Y710D01*
G37*
D02*
G36*
X40Y710D02*
X40Y708D01*
X1770Y708D01*
X1770Y710D01*
X40Y710D01*
G37*
D02*
G36*
X40Y710D02*
X40Y708D01*
X1770Y708D01*
X1770Y710D01*
X40Y710D01*
G37*
D02*
G36*
X40Y710D02*
X40Y708D01*
X1770Y708D01*
X1770Y710D01*
X40Y710D01*
G37*
D02*
G36*
X40Y708D02*
X40Y404D01*
X1238Y404D01*
X1238Y402D01*
X1246Y402D01*
X1246Y400D01*
X1250Y400D01*
X1250Y398D01*
X1254Y398D01*
X1254Y396D01*
X1256Y396D01*
X1256Y394D01*
X1258Y394D01*
X1258Y392D01*
X1262Y392D01*
X1262Y390D01*
X1264Y390D01*
X1264Y386D01*
X1266Y386D01*
X1266Y384D01*
X1268Y384D01*
X1268Y382D01*
X1270Y382D01*
X1270Y378D01*
X1272Y378D01*
X1272Y374D01*
X1274Y374D01*
X1274Y366D01*
X1276Y366D01*
X1276Y346D01*
X1274Y346D01*
X1274Y340D01*
X1272Y340D01*
X1272Y336D01*
X1270Y336D01*
X1270Y332D01*
X1268Y332D01*
X1268Y328D01*
X1266Y328D01*
X1266Y326D01*
X1264Y326D01*
X1264Y324D01*
X1262Y324D01*
X1262Y322D01*
X1260Y322D01*
X1260Y320D01*
X1258Y320D01*
X1258Y318D01*
X1254Y318D01*
X1254Y316D01*
X1250Y316D01*
X1250Y302D01*
X1636Y302D01*
X1636Y300D01*
X1644Y300D01*
X1644Y298D01*
X1648Y298D01*
X1648Y296D01*
X1652Y296D01*
X1652Y294D01*
X1654Y294D01*
X1654Y292D01*
X1658Y292D01*
X1658Y290D01*
X1660Y290D01*
X1660Y288D01*
X1662Y288D01*
X1662Y286D01*
X1664Y286D01*
X1664Y282D01*
X1666Y282D01*
X1666Y280D01*
X1668Y280D01*
X1668Y276D01*
X1670Y276D01*
X1670Y272D01*
X1672Y272D01*
X1672Y264D01*
X1674Y264D01*
X1674Y250D01*
X1672Y250D01*
X1672Y242D01*
X1670Y242D01*
X1670Y238D01*
X1668Y238D01*
X1668Y234D01*
X1666Y234D01*
X1666Y230D01*
X1664Y230D01*
X1664Y228D01*
X1662Y228D01*
X1662Y226D01*
X1660Y226D01*
X1660Y224D01*
X1658Y224D01*
X1658Y222D01*
X1656Y222D01*
X1656Y220D01*
X1654Y220D01*
X1654Y218D01*
X1650Y218D01*
X1650Y216D01*
X1646Y216D01*
X1646Y214D01*
X1638Y214D01*
X1638Y212D01*
X1770Y212D01*
X1770Y708D01*
X40Y708D01*
G37*
D02*
G36*
X40Y404D02*
X40Y302D01*
X836Y302D01*
X836Y300D01*
X844Y300D01*
X844Y298D01*
X848Y298D01*
X848Y296D01*
X852Y296D01*
X852Y294D01*
X854Y294D01*
X854Y292D01*
X858Y292D01*
X858Y290D01*
X860Y290D01*
X860Y288D01*
X862Y288D01*
X862Y286D01*
X864Y286D01*
X864Y282D01*
X866Y282D01*
X866Y280D01*
X868Y280D01*
X868Y276D01*
X888Y276D01*
X888Y278D01*
X890Y278D01*
X890Y282D01*
X892Y282D01*
X892Y284D01*
X894Y284D01*
X894Y286D01*
X896Y286D01*
X896Y288D01*
X898Y288D01*
X898Y290D01*
X900Y290D01*
X900Y292D01*
X902Y292D01*
X902Y294D01*
X906Y294D01*
X906Y316D01*
X902Y316D01*
X902Y318D01*
X900Y318D01*
X900Y320D01*
X898Y320D01*
X898Y322D01*
X896Y322D01*
X896Y324D01*
X894Y324D01*
X894Y326D01*
X892Y326D01*
X892Y328D01*
X890Y328D01*
X890Y330D01*
X888Y330D01*
X888Y334D01*
X886Y334D01*
X886Y338D01*
X884Y338D01*
X884Y344D01*
X882Y344D01*
X882Y368D01*
X884Y368D01*
X884Y376D01*
X886Y376D01*
X886Y378D01*
X888Y378D01*
X888Y382D01*
X890Y382D01*
X890Y386D01*
X892Y386D01*
X892Y388D01*
X894Y388D01*
X894Y390D01*
X896Y390D01*
X896Y392D01*
X898Y392D01*
X898Y394D01*
X900Y394D01*
X900Y396D01*
X904Y396D01*
X904Y398D01*
X908Y398D01*
X908Y400D01*
X912Y400D01*
X912Y402D01*
X918Y402D01*
X918Y404D01*
X40Y404D01*
G37*
D02*
G36*
X938Y404D02*
X938Y402D01*
X946Y402D01*
X946Y400D01*
X950Y400D01*
X950Y398D01*
X954Y398D01*
X954Y396D01*
X956Y396D01*
X956Y394D01*
X958Y394D01*
X958Y392D01*
X962Y392D01*
X962Y390D01*
X964Y390D01*
X964Y386D01*
X966Y386D01*
X966Y384D01*
X968Y384D01*
X968Y382D01*
X990Y382D01*
X990Y386D01*
X992Y386D01*
X992Y388D01*
X994Y388D01*
X994Y390D01*
X996Y390D01*
X996Y392D01*
X998Y392D01*
X998Y394D01*
X1000Y394D01*
X1000Y396D01*
X1004Y396D01*
X1004Y398D01*
X1008Y398D01*
X1008Y400D01*
X1012Y400D01*
X1012Y402D01*
X1018Y402D01*
X1018Y404D01*
X938Y404D01*
G37*
D02*
G36*
X1038Y404D02*
X1038Y402D01*
X1046Y402D01*
X1046Y400D01*
X1050Y400D01*
X1050Y398D01*
X1054Y398D01*
X1054Y396D01*
X1056Y396D01*
X1056Y394D01*
X1058Y394D01*
X1058Y392D01*
X1062Y392D01*
X1062Y390D01*
X1064Y390D01*
X1064Y386D01*
X1066Y386D01*
X1066Y384D01*
X1068Y384D01*
X1068Y382D01*
X1090Y382D01*
X1090Y386D01*
X1092Y386D01*
X1092Y388D01*
X1094Y388D01*
X1094Y390D01*
X1096Y390D01*
X1096Y392D01*
X1098Y392D01*
X1098Y394D01*
X1100Y394D01*
X1100Y396D01*
X1104Y396D01*
X1104Y398D01*
X1108Y398D01*
X1108Y400D01*
X1112Y400D01*
X1112Y402D01*
X1118Y402D01*
X1118Y404D01*
X1038Y404D01*
G37*
D02*
G36*
X1138Y404D02*
X1138Y402D01*
X1146Y402D01*
X1146Y400D01*
X1150Y400D01*
X1150Y398D01*
X1154Y398D01*
X1154Y396D01*
X1156Y396D01*
X1156Y394D01*
X1158Y394D01*
X1158Y392D01*
X1162Y392D01*
X1162Y390D01*
X1164Y390D01*
X1164Y386D01*
X1166Y386D01*
X1166Y384D01*
X1168Y384D01*
X1168Y382D01*
X1190Y382D01*
X1190Y386D01*
X1192Y386D01*
X1192Y388D01*
X1194Y388D01*
X1194Y390D01*
X1196Y390D01*
X1196Y392D01*
X1198Y392D01*
X1198Y394D01*
X1200Y394D01*
X1200Y396D01*
X1204Y396D01*
X1204Y398D01*
X1208Y398D01*
X1208Y400D01*
X1212Y400D01*
X1212Y402D01*
X1218Y402D01*
X1218Y404D01*
X1138Y404D01*
G37*
D02*
G36*
X40Y302D02*
X40Y212D01*
X218Y212D01*
X218Y214D01*
X212Y214D01*
X212Y216D01*
X208Y216D01*
X208Y218D01*
X204Y218D01*
X204Y220D01*
X202Y220D01*
X202Y222D01*
X200Y222D01*
X200Y224D01*
X196Y224D01*
X196Y228D01*
X194Y228D01*
X194Y230D01*
X192Y230D01*
X192Y232D01*
X190Y232D01*
X190Y236D01*
X188Y236D01*
X188Y240D01*
X186Y240D01*
X186Y246D01*
X184Y246D01*
X184Y266D01*
X186Y266D01*
X186Y274D01*
X188Y274D01*
X188Y278D01*
X190Y278D01*
X190Y282D01*
X192Y282D01*
X192Y284D01*
X194Y284D01*
X194Y286D01*
X196Y286D01*
X196Y288D01*
X198Y288D01*
X198Y290D01*
X200Y290D01*
X200Y292D01*
X202Y292D01*
X202Y294D01*
X206Y294D01*
X206Y296D01*
X210Y296D01*
X210Y298D01*
X214Y298D01*
X214Y300D01*
X222Y300D01*
X222Y302D01*
X40Y302D01*
G37*
D02*
G36*
X236Y302D02*
X236Y300D01*
X244Y300D01*
X244Y298D01*
X248Y298D01*
X248Y296D01*
X252Y296D01*
X252Y294D01*
X254Y294D01*
X254Y292D01*
X258Y292D01*
X258Y290D01*
X260Y290D01*
X260Y288D01*
X262Y288D01*
X262Y286D01*
X264Y286D01*
X264Y282D01*
X266Y282D01*
X266Y280D01*
X268Y280D01*
X268Y276D01*
X288Y276D01*
X288Y278D01*
X290Y278D01*
X290Y282D01*
X292Y282D01*
X292Y284D01*
X294Y284D01*
X294Y286D01*
X296Y286D01*
X296Y288D01*
X298Y288D01*
X298Y290D01*
X300Y290D01*
X300Y292D01*
X302Y292D01*
X302Y294D01*
X306Y294D01*
X306Y296D01*
X310Y296D01*
X310Y298D01*
X314Y298D01*
X314Y300D01*
X322Y300D01*
X322Y302D01*
X236Y302D01*
G37*
D02*
G36*
X336Y302D02*
X336Y300D01*
X344Y300D01*
X344Y298D01*
X348Y298D01*
X348Y296D01*
X352Y296D01*
X352Y294D01*
X354Y294D01*
X354Y292D01*
X358Y292D01*
X358Y290D01*
X360Y290D01*
X360Y288D01*
X362Y288D01*
X362Y286D01*
X364Y286D01*
X364Y282D01*
X366Y282D01*
X366Y280D01*
X368Y280D01*
X368Y276D01*
X388Y276D01*
X388Y278D01*
X390Y278D01*
X390Y282D01*
X392Y282D01*
X392Y284D01*
X394Y284D01*
X394Y286D01*
X396Y286D01*
X396Y288D01*
X398Y288D01*
X398Y290D01*
X400Y290D01*
X400Y292D01*
X402Y292D01*
X402Y294D01*
X406Y294D01*
X406Y296D01*
X410Y296D01*
X410Y298D01*
X414Y298D01*
X414Y300D01*
X422Y300D01*
X422Y302D01*
X336Y302D01*
G37*
D02*
G36*
X436Y302D02*
X436Y300D01*
X444Y300D01*
X444Y298D01*
X448Y298D01*
X448Y296D01*
X452Y296D01*
X452Y294D01*
X454Y294D01*
X454Y292D01*
X458Y292D01*
X458Y290D01*
X460Y290D01*
X460Y288D01*
X462Y288D01*
X462Y286D01*
X464Y286D01*
X464Y282D01*
X466Y282D01*
X466Y280D01*
X468Y280D01*
X468Y276D01*
X488Y276D01*
X488Y278D01*
X490Y278D01*
X490Y282D01*
X492Y282D01*
X492Y284D01*
X494Y284D01*
X494Y286D01*
X496Y286D01*
X496Y288D01*
X498Y288D01*
X498Y290D01*
X500Y290D01*
X500Y292D01*
X502Y292D01*
X502Y294D01*
X506Y294D01*
X506Y296D01*
X510Y296D01*
X510Y298D01*
X514Y298D01*
X514Y300D01*
X522Y300D01*
X522Y302D01*
X436Y302D01*
G37*
D02*
G36*
X536Y302D02*
X536Y300D01*
X544Y300D01*
X544Y298D01*
X548Y298D01*
X548Y296D01*
X552Y296D01*
X552Y294D01*
X554Y294D01*
X554Y292D01*
X558Y292D01*
X558Y290D01*
X560Y290D01*
X560Y288D01*
X562Y288D01*
X562Y286D01*
X564Y286D01*
X564Y282D01*
X566Y282D01*
X566Y280D01*
X568Y280D01*
X568Y276D01*
X588Y276D01*
X588Y278D01*
X590Y278D01*
X590Y282D01*
X592Y282D01*
X592Y284D01*
X594Y284D01*
X594Y286D01*
X596Y286D01*
X596Y288D01*
X598Y288D01*
X598Y290D01*
X600Y290D01*
X600Y292D01*
X602Y292D01*
X602Y294D01*
X606Y294D01*
X606Y296D01*
X610Y296D01*
X610Y298D01*
X614Y298D01*
X614Y300D01*
X622Y300D01*
X622Y302D01*
X536Y302D01*
G37*
D02*
G36*
X636Y302D02*
X636Y300D01*
X644Y300D01*
X644Y298D01*
X648Y298D01*
X648Y296D01*
X652Y296D01*
X652Y294D01*
X654Y294D01*
X654Y292D01*
X658Y292D01*
X658Y290D01*
X660Y290D01*
X660Y288D01*
X662Y288D01*
X662Y286D01*
X664Y286D01*
X664Y282D01*
X666Y282D01*
X666Y280D01*
X668Y280D01*
X668Y276D01*
X688Y276D01*
X688Y278D01*
X690Y278D01*
X690Y282D01*
X692Y282D01*
X692Y284D01*
X694Y284D01*
X694Y286D01*
X696Y286D01*
X696Y288D01*
X698Y288D01*
X698Y290D01*
X700Y290D01*
X700Y292D01*
X702Y292D01*
X702Y294D01*
X706Y294D01*
X706Y296D01*
X710Y296D01*
X710Y298D01*
X714Y298D01*
X714Y300D01*
X722Y300D01*
X722Y302D01*
X636Y302D01*
G37*
D02*
G36*
X736Y302D02*
X736Y300D01*
X744Y300D01*
X744Y298D01*
X748Y298D01*
X748Y296D01*
X752Y296D01*
X752Y294D01*
X754Y294D01*
X754Y292D01*
X758Y292D01*
X758Y290D01*
X760Y290D01*
X760Y288D01*
X762Y288D01*
X762Y286D01*
X764Y286D01*
X764Y282D01*
X766Y282D01*
X766Y280D01*
X768Y280D01*
X768Y276D01*
X788Y276D01*
X788Y278D01*
X790Y278D01*
X790Y282D01*
X792Y282D01*
X792Y284D01*
X794Y284D01*
X794Y286D01*
X796Y286D01*
X796Y288D01*
X798Y288D01*
X798Y290D01*
X800Y290D01*
X800Y292D01*
X802Y292D01*
X802Y294D01*
X806Y294D01*
X806Y296D01*
X810Y296D01*
X810Y298D01*
X814Y298D01*
X814Y300D01*
X822Y300D01*
X822Y302D01*
X736Y302D01*
G37*
D02*
G36*
X1250Y302D02*
X1250Y296D01*
X1252Y296D01*
X1252Y294D01*
X1254Y294D01*
X1254Y292D01*
X1258Y292D01*
X1258Y290D01*
X1260Y290D01*
X1260Y288D01*
X1262Y288D01*
X1262Y286D01*
X1264Y286D01*
X1264Y282D01*
X1266Y282D01*
X1266Y280D01*
X1268Y280D01*
X1268Y276D01*
X1288Y276D01*
X1288Y278D01*
X1290Y278D01*
X1290Y282D01*
X1292Y282D01*
X1292Y284D01*
X1294Y284D01*
X1294Y286D01*
X1296Y286D01*
X1296Y288D01*
X1298Y288D01*
X1298Y290D01*
X1300Y290D01*
X1300Y292D01*
X1302Y292D01*
X1302Y294D01*
X1306Y294D01*
X1306Y296D01*
X1310Y296D01*
X1310Y298D01*
X1314Y298D01*
X1314Y300D01*
X1322Y300D01*
X1322Y302D01*
X1250Y302D01*
G37*
D02*
G36*
X1336Y302D02*
X1336Y300D01*
X1344Y300D01*
X1344Y298D01*
X1348Y298D01*
X1348Y296D01*
X1352Y296D01*
X1352Y294D01*
X1354Y294D01*
X1354Y292D01*
X1358Y292D01*
X1358Y290D01*
X1360Y290D01*
X1360Y288D01*
X1362Y288D01*
X1362Y286D01*
X1364Y286D01*
X1364Y282D01*
X1366Y282D01*
X1366Y280D01*
X1368Y280D01*
X1368Y276D01*
X1388Y276D01*
X1388Y278D01*
X1390Y278D01*
X1390Y282D01*
X1392Y282D01*
X1392Y284D01*
X1394Y284D01*
X1394Y286D01*
X1396Y286D01*
X1396Y288D01*
X1398Y288D01*
X1398Y290D01*
X1400Y290D01*
X1400Y292D01*
X1402Y292D01*
X1402Y294D01*
X1406Y294D01*
X1406Y296D01*
X1410Y296D01*
X1410Y298D01*
X1414Y298D01*
X1414Y300D01*
X1422Y300D01*
X1422Y302D01*
X1336Y302D01*
G37*
D02*
G36*
X1436Y302D02*
X1436Y300D01*
X1444Y300D01*
X1444Y298D01*
X1448Y298D01*
X1448Y296D01*
X1452Y296D01*
X1452Y294D01*
X1454Y294D01*
X1454Y292D01*
X1458Y292D01*
X1458Y290D01*
X1460Y290D01*
X1460Y288D01*
X1462Y288D01*
X1462Y286D01*
X1464Y286D01*
X1464Y282D01*
X1466Y282D01*
X1466Y280D01*
X1468Y280D01*
X1468Y276D01*
X1488Y276D01*
X1488Y278D01*
X1490Y278D01*
X1490Y282D01*
X1492Y282D01*
X1492Y284D01*
X1494Y284D01*
X1494Y286D01*
X1496Y286D01*
X1496Y288D01*
X1498Y288D01*
X1498Y290D01*
X1500Y290D01*
X1500Y292D01*
X1502Y292D01*
X1502Y294D01*
X1506Y294D01*
X1506Y296D01*
X1510Y296D01*
X1510Y298D01*
X1514Y298D01*
X1514Y300D01*
X1522Y300D01*
X1522Y302D01*
X1436Y302D01*
G37*
D02*
G36*
X1536Y302D02*
X1536Y300D01*
X1544Y300D01*
X1544Y298D01*
X1548Y298D01*
X1548Y296D01*
X1552Y296D01*
X1552Y294D01*
X1554Y294D01*
X1554Y292D01*
X1558Y292D01*
X1558Y290D01*
X1560Y290D01*
X1560Y288D01*
X1562Y288D01*
X1562Y286D01*
X1564Y286D01*
X1564Y282D01*
X1566Y282D01*
X1566Y280D01*
X1568Y280D01*
X1568Y276D01*
X1588Y276D01*
X1588Y278D01*
X1590Y278D01*
X1590Y282D01*
X1592Y282D01*
X1592Y284D01*
X1594Y284D01*
X1594Y286D01*
X1596Y286D01*
X1596Y288D01*
X1598Y288D01*
X1598Y290D01*
X1600Y290D01*
X1600Y292D01*
X1602Y292D01*
X1602Y294D01*
X1606Y294D01*
X1606Y296D01*
X1610Y296D01*
X1610Y298D01*
X1614Y298D01*
X1614Y300D01*
X1622Y300D01*
X1622Y302D01*
X1536Y302D01*
G37*
D02*
G36*
X268Y238D02*
X268Y234D01*
X266Y234D01*
X266Y230D01*
X264Y230D01*
X264Y228D01*
X262Y228D01*
X262Y226D01*
X260Y226D01*
X260Y224D01*
X258Y224D01*
X258Y222D01*
X256Y222D01*
X256Y220D01*
X254Y220D01*
X254Y218D01*
X250Y218D01*
X250Y216D01*
X246Y216D01*
X246Y214D01*
X238Y214D01*
X238Y212D01*
X318Y212D01*
X318Y214D01*
X312Y214D01*
X312Y216D01*
X308Y216D01*
X308Y218D01*
X304Y218D01*
X304Y220D01*
X302Y220D01*
X302Y222D01*
X300Y222D01*
X300Y224D01*
X296Y224D01*
X296Y228D01*
X294Y228D01*
X294Y230D01*
X292Y230D01*
X292Y232D01*
X290Y232D01*
X290Y236D01*
X288Y236D01*
X288Y238D01*
X268Y238D01*
G37*
D02*
G36*
X368Y238D02*
X368Y234D01*
X366Y234D01*
X366Y230D01*
X364Y230D01*
X364Y228D01*
X362Y228D01*
X362Y226D01*
X360Y226D01*
X360Y224D01*
X358Y224D01*
X358Y222D01*
X356Y222D01*
X356Y220D01*
X354Y220D01*
X354Y218D01*
X350Y218D01*
X350Y216D01*
X346Y216D01*
X346Y214D01*
X338Y214D01*
X338Y212D01*
X418Y212D01*
X418Y214D01*
X412Y214D01*
X412Y216D01*
X408Y216D01*
X408Y218D01*
X404Y218D01*
X404Y220D01*
X402Y220D01*
X402Y222D01*
X400Y222D01*
X400Y224D01*
X396Y224D01*
X396Y228D01*
X394Y228D01*
X394Y230D01*
X392Y230D01*
X392Y232D01*
X390Y232D01*
X390Y236D01*
X388Y236D01*
X388Y238D01*
X368Y238D01*
G37*
D02*
G36*
X468Y238D02*
X468Y234D01*
X466Y234D01*
X466Y230D01*
X464Y230D01*
X464Y228D01*
X462Y228D01*
X462Y226D01*
X460Y226D01*
X460Y224D01*
X458Y224D01*
X458Y222D01*
X456Y222D01*
X456Y220D01*
X454Y220D01*
X454Y218D01*
X450Y218D01*
X450Y216D01*
X446Y216D01*
X446Y214D01*
X438Y214D01*
X438Y212D01*
X518Y212D01*
X518Y214D01*
X512Y214D01*
X512Y216D01*
X508Y216D01*
X508Y218D01*
X504Y218D01*
X504Y220D01*
X502Y220D01*
X502Y222D01*
X500Y222D01*
X500Y224D01*
X496Y224D01*
X496Y228D01*
X494Y228D01*
X494Y230D01*
X492Y230D01*
X492Y232D01*
X490Y232D01*
X490Y236D01*
X488Y236D01*
X488Y238D01*
X468Y238D01*
G37*
D02*
G36*
X568Y238D02*
X568Y234D01*
X566Y234D01*
X566Y230D01*
X564Y230D01*
X564Y228D01*
X562Y228D01*
X562Y226D01*
X560Y226D01*
X560Y224D01*
X558Y224D01*
X558Y222D01*
X556Y222D01*
X556Y220D01*
X554Y220D01*
X554Y218D01*
X550Y218D01*
X550Y216D01*
X546Y216D01*
X546Y214D01*
X538Y214D01*
X538Y212D01*
X618Y212D01*
X618Y214D01*
X612Y214D01*
X612Y216D01*
X608Y216D01*
X608Y218D01*
X604Y218D01*
X604Y220D01*
X602Y220D01*
X602Y222D01*
X600Y222D01*
X600Y224D01*
X596Y224D01*
X596Y228D01*
X594Y228D01*
X594Y230D01*
X592Y230D01*
X592Y232D01*
X590Y232D01*
X590Y236D01*
X588Y236D01*
X588Y238D01*
X568Y238D01*
G37*
D02*
G36*
X668Y238D02*
X668Y234D01*
X666Y234D01*
X666Y230D01*
X664Y230D01*
X664Y228D01*
X662Y228D01*
X662Y226D01*
X660Y226D01*
X660Y224D01*
X658Y224D01*
X658Y222D01*
X656Y222D01*
X656Y220D01*
X654Y220D01*
X654Y218D01*
X650Y218D01*
X650Y216D01*
X646Y216D01*
X646Y214D01*
X638Y214D01*
X638Y212D01*
X718Y212D01*
X718Y214D01*
X712Y214D01*
X712Y216D01*
X708Y216D01*
X708Y218D01*
X704Y218D01*
X704Y220D01*
X702Y220D01*
X702Y222D01*
X700Y222D01*
X700Y224D01*
X696Y224D01*
X696Y228D01*
X694Y228D01*
X694Y230D01*
X692Y230D01*
X692Y232D01*
X690Y232D01*
X690Y236D01*
X688Y236D01*
X688Y238D01*
X668Y238D01*
G37*
D02*
G36*
X768Y238D02*
X768Y234D01*
X766Y234D01*
X766Y230D01*
X764Y230D01*
X764Y228D01*
X762Y228D01*
X762Y226D01*
X760Y226D01*
X760Y224D01*
X758Y224D01*
X758Y222D01*
X756Y222D01*
X756Y220D01*
X754Y220D01*
X754Y218D01*
X750Y218D01*
X750Y216D01*
X746Y216D01*
X746Y214D01*
X738Y214D01*
X738Y212D01*
X818Y212D01*
X818Y214D01*
X812Y214D01*
X812Y216D01*
X808Y216D01*
X808Y218D01*
X804Y218D01*
X804Y220D01*
X802Y220D01*
X802Y222D01*
X800Y222D01*
X800Y224D01*
X796Y224D01*
X796Y228D01*
X794Y228D01*
X794Y230D01*
X792Y230D01*
X792Y232D01*
X790Y232D01*
X790Y236D01*
X788Y236D01*
X788Y238D01*
X768Y238D01*
G37*
D02*
G36*
X868Y238D02*
X868Y234D01*
X866Y234D01*
X866Y230D01*
X864Y230D01*
X864Y228D01*
X862Y228D01*
X862Y226D01*
X860Y226D01*
X860Y224D01*
X858Y224D01*
X858Y222D01*
X856Y222D01*
X856Y220D01*
X854Y220D01*
X854Y218D01*
X850Y218D01*
X850Y216D01*
X846Y216D01*
X846Y214D01*
X838Y214D01*
X838Y212D01*
X906Y212D01*
X906Y214D01*
X904Y214D01*
X904Y218D01*
X902Y218D01*
X902Y222D01*
X900Y222D01*
X900Y224D01*
X896Y224D01*
X896Y228D01*
X894Y228D01*
X894Y230D01*
X892Y230D01*
X892Y232D01*
X890Y232D01*
X890Y236D01*
X888Y236D01*
X888Y238D01*
X868Y238D01*
G37*
D02*
G36*
X1368Y238D02*
X1368Y234D01*
X1366Y234D01*
X1366Y230D01*
X1364Y230D01*
X1364Y228D01*
X1362Y228D01*
X1362Y226D01*
X1360Y226D01*
X1360Y224D01*
X1358Y224D01*
X1358Y222D01*
X1356Y222D01*
X1356Y220D01*
X1354Y220D01*
X1354Y218D01*
X1350Y218D01*
X1350Y212D01*
X1418Y212D01*
X1418Y214D01*
X1412Y214D01*
X1412Y216D01*
X1408Y216D01*
X1408Y218D01*
X1404Y218D01*
X1404Y220D01*
X1402Y220D01*
X1402Y222D01*
X1400Y222D01*
X1400Y224D01*
X1396Y224D01*
X1396Y228D01*
X1394Y228D01*
X1394Y230D01*
X1392Y230D01*
X1392Y232D01*
X1390Y232D01*
X1390Y236D01*
X1388Y236D01*
X1388Y238D01*
X1368Y238D01*
G37*
D02*
G36*
X1468Y238D02*
X1468Y234D01*
X1466Y234D01*
X1466Y230D01*
X1464Y230D01*
X1464Y228D01*
X1462Y228D01*
X1462Y226D01*
X1460Y226D01*
X1460Y224D01*
X1458Y224D01*
X1458Y222D01*
X1456Y222D01*
X1456Y220D01*
X1454Y220D01*
X1454Y218D01*
X1450Y218D01*
X1450Y216D01*
X1446Y216D01*
X1446Y214D01*
X1438Y214D01*
X1438Y212D01*
X1518Y212D01*
X1518Y214D01*
X1512Y214D01*
X1512Y216D01*
X1508Y216D01*
X1508Y218D01*
X1504Y218D01*
X1504Y220D01*
X1502Y220D01*
X1502Y222D01*
X1500Y222D01*
X1500Y224D01*
X1496Y224D01*
X1496Y228D01*
X1494Y228D01*
X1494Y230D01*
X1492Y230D01*
X1492Y232D01*
X1490Y232D01*
X1490Y236D01*
X1488Y236D01*
X1488Y238D01*
X1468Y238D01*
G37*
D02*
G36*
X1568Y238D02*
X1568Y234D01*
X1566Y234D01*
X1566Y230D01*
X1564Y230D01*
X1564Y228D01*
X1562Y228D01*
X1562Y226D01*
X1560Y226D01*
X1560Y224D01*
X1558Y224D01*
X1558Y222D01*
X1556Y222D01*
X1556Y220D01*
X1554Y220D01*
X1554Y218D01*
X1550Y218D01*
X1550Y216D01*
X1546Y216D01*
X1546Y214D01*
X1538Y214D01*
X1538Y212D01*
X1618Y212D01*
X1618Y214D01*
X1612Y214D01*
X1612Y216D01*
X1608Y216D01*
X1608Y218D01*
X1604Y218D01*
X1604Y220D01*
X1602Y220D01*
X1602Y222D01*
X1600Y222D01*
X1600Y224D01*
X1596Y224D01*
X1596Y228D01*
X1594Y228D01*
X1594Y230D01*
X1592Y230D01*
X1592Y232D01*
X1590Y232D01*
X1590Y236D01*
X1588Y236D01*
X1588Y238D01*
X1568Y238D01*
G37*
D02*
G36*
X40Y212D02*
X40Y210D01*
X906Y210D01*
X906Y212D01*
X40Y212D01*
G37*
D02*
G36*
X40Y212D02*
X40Y210D01*
X906Y210D01*
X906Y212D01*
X40Y212D01*
G37*
D02*
G36*
X40Y212D02*
X40Y210D01*
X906Y210D01*
X906Y212D01*
X40Y212D01*
G37*
D02*
G36*
X40Y212D02*
X40Y210D01*
X906Y210D01*
X906Y212D01*
X40Y212D01*
G37*
D02*
G36*
X40Y212D02*
X40Y210D01*
X906Y210D01*
X906Y212D01*
X40Y212D01*
G37*
D02*
G36*
X40Y212D02*
X40Y210D01*
X906Y210D01*
X906Y212D01*
X40Y212D01*
G37*
D02*
G36*
X40Y212D02*
X40Y210D01*
X906Y210D01*
X906Y212D01*
X40Y212D01*
G37*
D02*
G36*
X40Y212D02*
X40Y210D01*
X906Y210D01*
X906Y212D01*
X40Y212D01*
G37*
D02*
G36*
X1350Y212D02*
X1350Y210D01*
X1770Y210D01*
X1770Y212D01*
X1350Y212D01*
G37*
D02*
G36*
X1350Y212D02*
X1350Y210D01*
X1770Y210D01*
X1770Y212D01*
X1350Y212D01*
G37*
D02*
G36*
X1350Y212D02*
X1350Y210D01*
X1770Y210D01*
X1770Y212D01*
X1350Y212D01*
G37*
D02*
G36*
X1350Y212D02*
X1350Y210D01*
X1770Y210D01*
X1770Y212D01*
X1350Y212D01*
G37*
D02*
G36*
X40Y210D02*
X40Y180D01*
X138Y180D01*
X138Y178D01*
X148Y178D01*
X148Y176D01*
X154Y176D01*
X154Y174D01*
X158Y174D01*
X158Y172D01*
X162Y172D01*
X162Y170D01*
X166Y170D01*
X166Y168D01*
X170Y168D01*
X170Y166D01*
X172Y166D01*
X172Y164D01*
X174Y164D01*
X174Y162D01*
X178Y162D01*
X178Y160D01*
X180Y160D01*
X180Y158D01*
X182Y158D01*
X182Y156D01*
X184Y156D01*
X184Y152D01*
X186Y152D01*
X186Y150D01*
X188Y150D01*
X188Y148D01*
X190Y148D01*
X190Y144D01*
X192Y144D01*
X192Y140D01*
X194Y140D01*
X194Y136D01*
X196Y136D01*
X196Y132D01*
X198Y132D01*
X198Y126D01*
X200Y126D01*
X200Y116D01*
X202Y116D01*
X202Y98D01*
X200Y98D01*
X200Y88D01*
X198Y88D01*
X198Y82D01*
X196Y82D01*
X196Y76D01*
X194Y76D01*
X194Y72D01*
X192Y72D01*
X192Y70D01*
X190Y70D01*
X190Y66D01*
X188Y66D01*
X188Y64D01*
X186Y64D01*
X186Y60D01*
X184Y60D01*
X184Y40D01*
X1018Y40D01*
X1018Y60D01*
X1012Y60D01*
X1012Y62D01*
X1006Y62D01*
X1006Y64D01*
X1004Y64D01*
X1004Y66D01*
X1000Y66D01*
X1000Y68D01*
X998Y68D01*
X998Y70D01*
X996Y70D01*
X996Y72D01*
X994Y72D01*
X994Y74D01*
X992Y74D01*
X992Y76D01*
X990Y76D01*
X990Y78D01*
X988Y78D01*
X988Y82D01*
X986Y82D01*
X986Y84D01*
X984Y84D01*
X984Y90D01*
X982Y90D01*
X982Y96D01*
X980Y96D01*
X980Y118D01*
X982Y118D01*
X982Y124D01*
X984Y124D01*
X984Y128D01*
X986Y128D01*
X986Y132D01*
X988Y132D01*
X988Y136D01*
X990Y136D01*
X990Y138D01*
X992Y138D01*
X992Y140D01*
X994Y140D01*
X994Y142D01*
X996Y142D01*
X996Y144D01*
X998Y144D01*
X998Y146D01*
X1002Y146D01*
X1002Y148D01*
X1004Y148D01*
X1004Y150D01*
X1008Y150D01*
X1008Y170D01*
X1002Y170D01*
X1002Y172D01*
X998Y172D01*
X998Y174D01*
X992Y174D01*
X992Y176D01*
X986Y176D01*
X986Y178D01*
X982Y178D01*
X982Y180D01*
X976Y180D01*
X976Y182D01*
X970Y182D01*
X970Y184D01*
X966Y184D01*
X966Y186D01*
X960Y186D01*
X960Y188D01*
X954Y188D01*
X954Y190D01*
X950Y190D01*
X950Y192D01*
X944Y192D01*
X944Y194D01*
X938Y194D01*
X938Y196D01*
X934Y196D01*
X934Y198D01*
X928Y198D01*
X928Y200D01*
X922Y200D01*
X922Y202D01*
X918Y202D01*
X918Y204D01*
X914Y204D01*
X914Y206D01*
X910Y206D01*
X910Y208D01*
X908Y208D01*
X908Y210D01*
X40Y210D01*
G37*
D02*
G36*
X1350Y210D02*
X1350Y180D01*
X1688Y180D01*
X1688Y178D01*
X1698Y178D01*
X1698Y176D01*
X1704Y176D01*
X1704Y174D01*
X1708Y174D01*
X1708Y172D01*
X1712Y172D01*
X1712Y170D01*
X1716Y170D01*
X1716Y168D01*
X1720Y168D01*
X1720Y166D01*
X1722Y166D01*
X1722Y164D01*
X1724Y164D01*
X1724Y162D01*
X1728Y162D01*
X1728Y160D01*
X1730Y160D01*
X1730Y158D01*
X1732Y158D01*
X1732Y156D01*
X1734Y156D01*
X1734Y152D01*
X1736Y152D01*
X1736Y150D01*
X1738Y150D01*
X1738Y148D01*
X1740Y148D01*
X1740Y144D01*
X1742Y144D01*
X1742Y140D01*
X1744Y140D01*
X1744Y136D01*
X1746Y136D01*
X1746Y132D01*
X1748Y132D01*
X1748Y126D01*
X1750Y126D01*
X1750Y116D01*
X1770Y116D01*
X1770Y210D01*
X1350Y210D01*
G37*
D02*
G36*
X40Y180D02*
X40Y128D01*
X60Y128D01*
X60Y134D01*
X62Y134D01*
X62Y138D01*
X64Y138D01*
X64Y142D01*
X66Y142D01*
X66Y146D01*
X68Y146D01*
X68Y148D01*
X70Y148D01*
X70Y152D01*
X72Y152D01*
X72Y154D01*
X74Y154D01*
X74Y156D01*
X76Y156D01*
X76Y158D01*
X78Y158D01*
X78Y160D01*
X80Y160D01*
X80Y162D01*
X82Y162D01*
X82Y164D01*
X86Y164D01*
X86Y166D01*
X88Y166D01*
X88Y168D01*
X92Y168D01*
X92Y170D01*
X94Y170D01*
X94Y172D01*
X98Y172D01*
X98Y174D01*
X104Y174D01*
X104Y176D01*
X110Y176D01*
X110Y178D01*
X120Y178D01*
X120Y180D01*
X40Y180D01*
G37*
D02*
G36*
X1350Y180D02*
X1350Y150D01*
X1352Y150D01*
X1352Y148D01*
X1356Y148D01*
X1356Y146D01*
X1358Y146D01*
X1358Y144D01*
X1362Y144D01*
X1362Y142D01*
X1364Y142D01*
X1364Y140D01*
X1366Y140D01*
X1366Y136D01*
X1368Y136D01*
X1368Y134D01*
X1370Y134D01*
X1370Y130D01*
X1372Y130D01*
X1372Y128D01*
X1374Y128D01*
X1374Y122D01*
X1376Y122D01*
X1376Y114D01*
X1378Y114D01*
X1378Y100D01*
X1376Y100D01*
X1376Y92D01*
X1374Y92D01*
X1374Y86D01*
X1372Y86D01*
X1372Y82D01*
X1370Y82D01*
X1370Y80D01*
X1368Y80D01*
X1368Y76D01*
X1366Y76D01*
X1366Y74D01*
X1364Y74D01*
X1364Y72D01*
X1362Y72D01*
X1362Y70D01*
X1360Y70D01*
X1360Y68D01*
X1358Y68D01*
X1358Y66D01*
X1354Y66D01*
X1354Y64D01*
X1350Y64D01*
X1350Y62D01*
X1346Y62D01*
X1346Y60D01*
X1340Y60D01*
X1340Y40D01*
X1624Y40D01*
X1624Y60D01*
X1622Y60D01*
X1622Y62D01*
X1620Y62D01*
X1620Y64D01*
X1618Y64D01*
X1618Y68D01*
X1616Y68D01*
X1616Y72D01*
X1614Y72D01*
X1614Y76D01*
X1612Y76D01*
X1612Y80D01*
X1610Y80D01*
X1610Y86D01*
X1608Y86D01*
X1608Y94D01*
X1606Y94D01*
X1606Y120D01*
X1608Y120D01*
X1608Y128D01*
X1610Y128D01*
X1610Y134D01*
X1612Y134D01*
X1612Y138D01*
X1614Y138D01*
X1614Y142D01*
X1616Y142D01*
X1616Y146D01*
X1618Y146D01*
X1618Y148D01*
X1620Y148D01*
X1620Y152D01*
X1622Y152D01*
X1622Y154D01*
X1624Y154D01*
X1624Y156D01*
X1626Y156D01*
X1626Y158D01*
X1628Y158D01*
X1628Y160D01*
X1630Y160D01*
X1630Y162D01*
X1632Y162D01*
X1632Y164D01*
X1636Y164D01*
X1636Y166D01*
X1638Y166D01*
X1638Y168D01*
X1642Y168D01*
X1642Y170D01*
X1644Y170D01*
X1644Y172D01*
X1648Y172D01*
X1648Y174D01*
X1654Y174D01*
X1654Y176D01*
X1660Y176D01*
X1660Y178D01*
X1670Y178D01*
X1670Y180D01*
X1350Y180D01*
G37*
D02*
G36*
X1750Y98D02*
X1750Y88D01*
X1748Y88D01*
X1748Y82D01*
X1746Y82D01*
X1746Y76D01*
X1744Y76D01*
X1744Y72D01*
X1742Y72D01*
X1742Y70D01*
X1740Y70D01*
X1740Y66D01*
X1738Y66D01*
X1738Y64D01*
X1736Y64D01*
X1736Y60D01*
X1734Y60D01*
X1734Y40D01*
X1770Y40D01*
X1770Y98D01*
X1750Y98D01*
G37*
D02*
G36*
X1068Y80D02*
X1068Y76D01*
X1066Y76D01*
X1066Y74D01*
X1064Y74D01*
X1064Y72D01*
X1062Y72D01*
X1062Y70D01*
X1060Y70D01*
X1060Y68D01*
X1058Y68D01*
X1058Y66D01*
X1054Y66D01*
X1054Y64D01*
X1050Y64D01*
X1050Y62D01*
X1046Y62D01*
X1046Y60D01*
X1040Y60D01*
X1040Y40D01*
X1118Y40D01*
X1118Y60D01*
X1112Y60D01*
X1112Y62D01*
X1106Y62D01*
X1106Y64D01*
X1104Y64D01*
X1104Y66D01*
X1100Y66D01*
X1100Y68D01*
X1098Y68D01*
X1098Y70D01*
X1096Y70D01*
X1096Y72D01*
X1094Y72D01*
X1094Y74D01*
X1092Y74D01*
X1092Y76D01*
X1090Y76D01*
X1090Y78D01*
X1088Y78D01*
X1088Y80D01*
X1068Y80D01*
G37*
D02*
G36*
X1168Y80D02*
X1168Y76D01*
X1166Y76D01*
X1166Y74D01*
X1164Y74D01*
X1164Y72D01*
X1162Y72D01*
X1162Y70D01*
X1160Y70D01*
X1160Y68D01*
X1158Y68D01*
X1158Y66D01*
X1154Y66D01*
X1154Y64D01*
X1150Y64D01*
X1150Y62D01*
X1146Y62D01*
X1146Y60D01*
X1140Y60D01*
X1140Y40D01*
X1218Y40D01*
X1218Y60D01*
X1212Y60D01*
X1212Y62D01*
X1206Y62D01*
X1206Y64D01*
X1204Y64D01*
X1204Y66D01*
X1200Y66D01*
X1200Y68D01*
X1198Y68D01*
X1198Y70D01*
X1196Y70D01*
X1196Y72D01*
X1194Y72D01*
X1194Y74D01*
X1192Y74D01*
X1192Y76D01*
X1190Y76D01*
X1190Y78D01*
X1188Y78D01*
X1188Y80D01*
X1168Y80D01*
G37*
D02*
G36*
X1268Y80D02*
X1268Y76D01*
X1266Y76D01*
X1266Y74D01*
X1264Y74D01*
X1264Y72D01*
X1262Y72D01*
X1262Y70D01*
X1260Y70D01*
X1260Y68D01*
X1258Y68D01*
X1258Y66D01*
X1254Y66D01*
X1254Y64D01*
X1250Y64D01*
X1250Y62D01*
X1246Y62D01*
X1246Y60D01*
X1240Y60D01*
X1240Y40D01*
X1318Y40D01*
X1318Y60D01*
X1312Y60D01*
X1312Y62D01*
X1306Y62D01*
X1306Y64D01*
X1304Y64D01*
X1304Y66D01*
X1300Y66D01*
X1300Y68D01*
X1298Y68D01*
X1298Y70D01*
X1296Y70D01*
X1296Y72D01*
X1294Y72D01*
X1294Y74D01*
X1292Y74D01*
X1292Y76D01*
X1290Y76D01*
X1290Y78D01*
X1288Y78D01*
X1288Y80D01*
X1268Y80D01*
G37*
D02*
G04 End of Copper1*
M02*