; NON-PLATED HOLES START AT T1
; THROUGH (PLATED) HOLES START AT T100
M48
INCH
T1C0.125984
T100C0.035000
T101C0.036000
T102C0.038000
%
T1
X001286Y011071
X001286Y001071
X016786Y001071
X016786Y011071
T100
X011286Y007571
X011286Y003571
X010286Y003571
X009286Y007571
X009286Y003571
X012286Y003571
X012286Y007571
X010286Y007571
T101
X016286Y002571
X002286Y008571
X009286Y002571
X003286Y002571
X006286Y002571
X011286Y008571
X011286Y002571
X012286Y002571
X004286Y008571
X002286Y002571
X013286Y002571
X015286Y008571
X012286Y008571
X005286Y008571
X005286Y002571
X006286Y008571
X016286Y008571
X004286Y002571
X013286Y008571
X015286Y002571
X007286Y008571
X008286Y008571
X003286Y008571
X009286Y008571
X010286Y008571
X008286Y002571
X010286Y002571
X007286Y002571
X014286Y002571
X014286Y008571
T102
X012286Y001071
X011286Y001071
X013786Y010071
X010286Y001071
X007286Y011071
X004286Y011071
X012786Y010071
X012786Y011071
X010786Y010071
X011786Y010071
X013286Y001071
X011786Y011071
X013786Y011071
X003286Y011071
X010786Y011071
X003286Y010071
X008286Y011071
X004286Y010071
X008286Y010071
X007286Y010071
T00
M30
